<svg xmlns="http://www.w3.org/2000/svg" width="24" height="24" fill="none" xmlns:v="https://vecta.io/nano"><g clip-path="url(#A)"><path fill-rule="evenodd" d="M6.363 6.433c-.091 0-.178-.036-.242-.1s-.1-.151-.1-.242.036-.178.1-.242.151-.1.242-.1h7.639c.091 0 .178.036.242.1s.1.151.1.242-.036.178-.1.242-.151.1-.242.1H6.363zm0 1.817c-.091 0-.178-.036-.242-.1s-.1-.151-.1-.242.036-.178.1-.242.151-.1.242-.1h7.639c.091 0 .178.036.242.1s.1.151.1.242-.036.178-.1.242-.151.1-.242.1H6.363zM4.297 5.596l.287-.314a.34.34 0 0 1 .237-.113.34.34 0 0 1 .246.089.34.34 0 0 1 .11.238.34.34 0 0 1-.091.246l-.352.384a2.08 2.08 0 0 1-.614 2.746 2.08 2.08 0 0 1-2.787-.384 2.08 2.08 0 0 1 .151-2.809 2.08 2.08 0 0 1 2.812-.083v.001zM2.052 7.288a.34.34 0 0 1-.107-.47.34.34 0 0 1 .47-.107l.545.344.874-.954a1.39 1.39 0 0 0-1.836.04 1.39 1.39 0 0 0-.193 1.826 1.39 1.39 0 0 0 1.787.422 1.39 1.39 0 0 0 .644-1.719L3.284 7.71c-.053.064-.127.107-.209.121s-.166-.003-.237-.047l-.785-.495zm15.645 6.925a1.43 1.43 0 0 0-1.298-.368 1.43 1.43 0 0 0-1.027.875 1.43 1.43 0 0 0 .157 1.34 1.43 1.43 0 0 0 .524.457c.21.107.443.161.678.156h.005c.379-.009.738-.167 1.001-.44s.406-.639.399-1.018v-.005c-.008-.377-.166-.736-.438-.998zm-1.031-1.083c.277-.005.553.045.811.146s.494.253.694.446.36.423.47.677.17.528.175.806l.001.005h-.001c.009.559-.205 1.099-.594 1.501s-.922.634-1.481.643h-.005c-.561.009-1.102-.204-1.505-.594s-.634-.924-.644-1.484.204-1.102.594-1.505.924-.634 1.484-.644v.001zM-.618 2.589H.759c.09-.001.175-.037.239-.1s.099-.149.1-.239V.509l-1.717 2.08zM1.782 0v2.25c-.001.271-.108.531-.3.723s-.452.3-.723.3H-1v18.52a.34.34 0 0 0 .338.339h16.673c.09-.001.175-.037.239-.101s.099-.149.1-.239v-1.696c-.237-.011-.461-.111-.627-.281s-.261-.396-.266-.633l-.265-.094-.259-.112a.94.94 0 0 1-1.322.022l-.549-.53a.94.94 0 0 1-.027-1.322l-.121-.254-.104-.262c-.248.004-.487-.091-.665-.264s-.28-.409-.285-.656l-.014-.763c-.004-.248.09-.487.261-.666s.407-.282.655-.287l.094-.265.112-.258a.94.94 0 0 1-.022-1.322l.53-.549a.94.94 0 0 1 1.322-.027l.254-.121.261-.104v-.003h-.001l.001-.031c.005-.242.104-.472.275-.643s.402-.268.644-.273h.005.023l.088-.002V.339c-.001-.09-.037-.175-.1-.239s-.149-.099-.239-.1H1.782zm-.633 22.817h14.863c.271-.001.531-.108.723-.3s.3-.452.3-.723v-1.707l.137-.003c.248-.004.484-.107.656-.285s.267-.417.264-.665l.262-.104.147-.067v4.698c-.001.09-.037.175-.1.238s-.149.099-.239.101H1.488c-.09-.001-.175-.037-.239-.1s-.099-.149-.1-.239v-.845.001zm17.352-11.336V2.207c0-.045-.009-.089-.026-.13s-.042-.078-.074-.11-.069-.056-.11-.073-.085-.026-.129-.025h-1.126v8.519c.241.006.47.104.64.275s.268.4.273.641l.265.094.259.112.028-.029h0zm.53.452c.047-.023.1-.032.152-.024s.1.032.138.069l.549.53a.25.25 0 0 1 .056.081c.013.03.02.063.021.096s-.005.067-.018.098-.031.06-.054.084l-.174.18a.34.34 0 0 0-.046.413c.158.26.28.54.363.832.022.077.07.143.136.189s.146.066.225.058l.218-.004v.001h.025c.063.004.122.031.166.076s.07.104.074.167l.002.036.013.727v.025c-.004.061-.029.118-.072.162a.25.25 0 0 1-.171.078c-.012 0-.024 0-.036.002l-.22.004a.34.34 0 0 0-.326.259c-.073.295-.185.579-.332.845a.34.34 0 0 0 .062.411l.18.174a.25.25 0 0 1 .056.081c.013.03.02.063.021.096s-.005.067-.018.098-.03.06-.054.084l-.53.549a.25.25 0 0 1-.177.077c-.062.001-.122-.02-.17-.06-.009-.01-.02-.02-.03-.029l-.163-.157c-.054-.052-.124-.085-.198-.093s-.15.008-.214.046a3.36 3.36 0 0 1-.832.363c-.077.022-.143.07-.189.136s-.066.146-.058.225l.004.223c0 .034-.006.067-.018.098s-.031.059-.054.084-.05.043-.08.057-.063.021-.096.021l-.445.008h-.023l-.036.002-.253.005h-.025c-.061-.004-.118-.029-.162-.072a.25.25 0 0 1-.078-.171c0-.012 0-.024-.002-.036l-.004-.22a.34.34 0 0 0-.259-.326c-.295-.073-.579-.185-.845-.332a.34.34 0 0 0-.411.061l-.174.181c-.023.024-.05.043-.081.056a.25.25 0 0 1-.096.021c-.068.001-.133-.024-.182-.071l-.551-.533c-.024-.023-.043-.051-.056-.081s-.02-.063-.021-.096c-.001-.068.024-.133.071-.182l.174-.18c.052-.054.085-.124.093-.198s-.008-.15-.046-.214a3.34 3.34 0 0 1-.363-.832c-.022-.077-.07-.143-.136-.188s-.146-.066-.225-.058l-.223.004c-.034.001-.067-.006-.098-.018s-.06-.031-.084-.054a.25.25 0 0 1-.057-.08c-.013-.03-.021-.063-.021-.096l-.014-.763c-.001-.068.025-.133.072-.182a.25.25 0 0 1 .177-.078l.25-.005a.34.34 0 0 0 .326-.259 3.48 3.48 0 0 1 .333-.844c.036-.066.05-.142.039-.216s-.046-.143-.1-.195l-.18-.174c-.024-.023-.043-.051-.056-.081a.25.25 0 0 1-.021-.096c-.001-.068.024-.133.071-.182l.53-.55a.25.25 0 0 1 .081-.056c.03-.013.063-.021.096-.021.068-.001.133.024.182.071l.18.174c.054.052.124.084.199.093s.15-.008.214-.046a3.37 3.37 0 0 1 .832-.363c.077-.022.143-.07.188-.136s.066-.146.058-.225l-.004-.218v-.025c.004-.063.031-.122.076-.166s.104-.07.167-.074l.036-.002.394-.007h.023l.036-.002.273-.005v.001h.025c.061.004.118.029.162.072s.075.106.078.171l.002.036.004.22a.34.34 0 0 0 .259.325c.295.073.579.185.845.332.066.036.142.05.216.039s.143-.046.195-.1l.174-.18a.24.24 0 0 1 .039-.033l.03-.018h0zM6.363 17.728c-.091 0-.178-.036-.242-.1s-.1-.151-.1-.242.036-.178.1-.242.151-.1.242-.1h4.298c.091 0 .178.036.242.1s.1.151.1.242-.036.178-.1.242-.151.1-.242.1H6.363zm0 1.817c-.091 0-.178-.036-.242-.1s-.1-.151-.1-.242.036-.178.1-.242.151-.1.242-.1h5.202c.091 0 .178.036.242.1s.1.151.1.242-.036.178-.1.242-.151.1-.242.1H6.363zm-2.066-2.653l.287-.314a.34.34 0 0 1 .237-.113.34.34 0 0 1 .246.089.34.34 0 0 1 .11.238.34.34 0 0 1-.091.246l-.352.384a2.08 2.08 0 0 1-.613 2.748 2.08 2.08 0 0 1-2.79-.383 2.08 2.08 0 0 1 .151-2.812 2.08 2.08 0 0 1 2.815-.083v.001zm-2.245 1.691l.785.495c.071.044.155.061.237.048s.157-.056.209-.121l.954-1.041c.122.317.123.667.005.985s-.348.582-.647.742-.646.206-.976.129-.621-.272-.818-.549-.286-.615-.251-.952.192-.65.441-.88.574-.361.913-.369.669.109.929.327l-.874.954-.545-.343a.34.34 0 0 0-.464.111.34.34 0 0 0 .1.466v-.003zm4.312-6.503a.34.34 0 0 1-.138-.019c-.044-.016-.085-.04-.119-.072s-.061-.071-.08-.114S6 11.785 6 11.738s.01-.093.028-.136.046-.082.08-.114.075-.057.119-.073.091-.022.138-.019h5.201c.047-.003.094.004.138.019s.085.041.119.073a.34.34 0 0 1 .08.114c.019.043.028.089.028.136s-.01.093-.028.136-.046.082-.08.114-.075.057-.119.072a.34.34 0 0 1-.138.019H6.364zm0 1.817c-.091 0-.178-.036-.242-.1s-.1-.151-.1-.242.036-.178.1-.242.151-.1.242-.1h4.298c.091 0 .178.036.242.1s.1.152.1.242-.036.178-.1.242-.151.1-.242.1H6.364zm-2.066-2.653l.287-.314a.34.34 0 0 1 .481-.021.34.34 0 0 1 .021.481l-.352.384a2.08 2.08 0 0 1-.614 2.747 2.08 2.08 0 0 1-2.788-.384 2.08 2.08 0 0 1 .151-2.811 2.08 2.08 0 0 1 2.813-.083v.001zm-2.245 1.691l.785.495a.34.34 0 0 0 .446-.073l.954-1.041c.121.317.122.667.003.985s-.349.581-.648.741-.646.205-.976.127-.62-.273-.817-.55-.285-.615-.249-.953.193-.65.443-.879.575-.36.914-.367.669.11.928.328l-.874.954-.545-.343a.34.34 0 0 0-.257-.044c-.044.01-.085.028-.122.054a.34.34 0 0 0-.139.221.34.34 0 0 0 .058.255c.026.036.059.068.097.091v-.001zm19.086-1.936l-.084-.759a6.63 6.63 0 0 1 2.263 5.491c-.076 1.028-.39 2.025-.919 2.91a6.63 6.63 0 0 1-2.125 2.19c-.068.052-.114.128-.128.213s.003.171.049.244.118.124.201.146.171.012.247-.028a7.31 7.31 0 0 0 3.356-5.625 7.31 7.31 0 0 0-2.496-6.055l.718-.08c.084-.017.159-.064.21-.133s.074-.155.064-.24-.05-.164-.115-.221-.148-.087-.234-.084l-1.557.173c-.09.01-.172.055-.229.126s-.083.16-.074.25l.173 1.557c.017.084.064.159.133.21s.155.074.24.064.164-.05.221-.115.087-.148.085-.234l.001.001z" fill="#9eafca"/></g><defs><clipPath id="A"><path fill="#fff" d="M0 0h24v24H0z"/></clipPath></defs></svg>