<svg xmlns="http://www.w3.org/2000/svg" width="24" height="24" fill="none" xmlns:v="https://vecta.io/nano"><g clip-path="url(#A)" fill="#9eafca"><path d="M12 0a11.96 11.96 0 0 0-9.333 4.451c-.191.235-.153.578.082.769s.578.153.769-.082a10.84 10.84 0 0 1 7.936-4.031v4.375a6.55 6.55 0 0 0-3.682 1.522c-.235.191-.262.535-.071.769s.54.256.769.06A5.5 5.5 0 0 1 12 6.545c3.005 0 5.454 2.449 5.454 5.454.032 3.355-3.109 5.98-6.404 5.373-.3-.054-.578.142-.627.442-.055.295.142.578.442.627 1.908.364 3.965-.235 5.358-1.447l3.093 3.092-.002.002c-2.717 2.557-7.108 3.537-10.767 2.264-.284-.093-.594.06-.687.349-.093.284.06.595.349.687 4.197 1.465 9.21.208 12.202-2.836l.054-.054c.016-.008.026-.019.035-.035.018-.022.046-.038.059-.064C27.961 12.966 22.599-.027 12 0zm3.322 3.322a.55.55 0 0 1 .72-.273 9.9 9.9 0 0 1 4.62 4.325c.327.639-.603 1.139-.96.518-.905-1.691-2.362-3.06-4.107-3.851a.54.54 0 0 1-.273-.72zm4.767 15.993l-.002.002-3.093-3.092.002-.002a6.49 6.49 0 0 0 1.527-3.676h4.369a10.83 10.83 0 0 1-2.804 6.769zm-9.497-2.583a.33.33 0 0 0-.101-.236l-.866-.869c.104-.206.192-.421.266-.643h1.226a.34.34 0 0 0 .337-.337v-2.021a.34.34 0 0 0-.337-.337H9.891c-.074-.222-.162-.438-.266-.643l.866-.869c.135-.124.132-.351 0-.475L9.062 8.873c-.131-.131-.344-.131-.475 0l-.869.866c-.205-.104-.421-.192-.643-.266V8.246a.34.34 0 0 0-.337-.337H4.717a.34.34 0 0 0-.337.337v1.226c-.222.074-.438.162-.643.266l-.869-.866c-.131-.131-.344-.131-.475 0L.964 10.301c-.132.124-.135.351 0 .475l.866.869c-.104.205-.192.421-.266.643H.337a.34.34 0 0 0-.337.337v2.021a.34.34 0 0 0 .337.337h1.226c.074.222.162.438.266.643l-.866.869c-.135.124-.132.35 0 .475l1.429 1.43c.131.131.344.131.475 0l.869-.866a4.71 4.71 0 0 0 .643.266v1.226a.34.34 0 0 0 .337.337h2.021a.34.34 0 0 0 .337-.337V17.8c.222-.074.438-.162.643-.266l.869.866c.131.131.344.131.475 0l1.428-1.428c.064-.064.101-.148.101-.239zm-3.517-3.096c-.055 1.781-2.641 1.781-2.695 0 .055-1.781 2.641-1.781 2.695 0z"/></g><defs><clipPath id="A"><path fill="#fff" d="M0 0h24v24H0z"/></clipPath></defs></svg>