<svg xmlns="http://www.w3.org/2000/svg" width="24" height="24" fill="none" xmlns:v="https://vecta.io/nano"><g clip-path="url(#A)"><path fill-rule="evenodd" d="M0 3.429A3.43 3.43 0 0 1 3.429 0a3.43 3.43 0 0 1 3.429 3.429 3.43 3.43 0 0 1-3.429 3.429A3.43 3.43 0 0 1 0 3.429zm0 17.143a3.43 3.43 0 0 1 3.429-3.428 3.43 3.43 0 0 1 3.429 3.428A3.43 3.43 0 0 1 3.429 24 3.43 3.43 0 0 1 0 20.571zm12-3.428a3.43 3.43 0 0 0-3.429 3.428A3.43 3.43 0 0 0 12 24h8.571A3.43 3.43 0 0 0 24 20.571a3.43 3.43 0 0 0-3.429-3.428H12zM0 12a3.43 3.43 0 0 1 3.429-3.429H12A3.43 3.43 0 0 1 15.429 12 3.43 3.43 0 0 1 12 15.429H3.429A3.43 3.43 0 0 1 0 12zm20.571-3.429A3.43 3.43 0 0 0 17.143 12a3.43 3.43 0 0 0 3.428 3.429A3.43 3.43 0 0 0 24 12a3.43 3.43 0 0 0-3.429-3.429zm-12-5.143A3.43 3.43 0 0 1 12 0h8.571A3.43 3.43 0 0 1 24 3.429a3.43 3.43 0 0 1-3.429 3.429H12a3.43 3.43 0 0 1-3.429-3.429z" fill="#9eafca"/></g><defs><clipPath id="A"><path fill="#fff" d="M0 0h24v24H0z"/></clipPath></defs></svg>