<svg xmlns="http://www.w3.org/2000/svg" width="24" height="24" fill="none" xmlns:v="https://vecta.io/nano"><g clip-path="url(#A)"><path fill-rule="evenodd" d="M4.963 16.457c.645 0 1.229-.286 1.651-.749s.683-1.099.683-1.804-.261-1.344-.683-1.804-1.005-.749-1.651-.749-1.229.286-1.651.749a2.67 2.67 0 0 0-.685 1.804c0 .705.261 1.344.685 1.804s1.005.749 1.651.749zm3.608 3.929c-.885.921-1.459 2.195-1.536 3.614h9.926c-.075-1.419-.651-2.693-1.536-3.614-.891-.927-2.099-1.498-3.427-1.498s-2.536.568-3.427 1.498zm.355-1.131c-.272.198-.525.42-.763.665-.608.633-1.085 1.414-1.381 2.294H0c.075-1.419.651-2.693 1.536-3.614.891-.927 2.099-1.498 3.427-1.498.851 0 1.648.23 2.344.641.635.37 1.187.889 1.619 1.513zm3.072-1.011c.645 0 1.229-.286 1.651-.749a2.67 2.67 0 0 0 .685-1.804c0-.705-.261-1.344-.685-1.804s-1.005-.749-1.651-.749-1.229.286-1.651.749a2.67 2.67 0 0 0-.685 1.804c0 .705.261 1.344.685 1.804s1.006.749 1.651.749zm3.072 1.011c.432-.624.984-1.143 1.619-1.513.696-.408 1.496-.641 2.347-.641 1.328 0 2.536.568 3.427 1.498.886.921 1.459 2.195 1.536 3.614h-6.785c-.296-.877-.773-1.658-1.381-2.294-.235-.245-.491-.466-.763-.665zm3.966-2.798c.645 0 1.23-.286 1.651-.749a2.67 2.67 0 0 0 .685-1.804c0-.705-.261-1.344-.685-1.804s-1.005-.749-1.651-.749-1.229.286-1.651.749-.683 1.099-.683 1.804.261 1.344.683 1.804 1.006.749 1.651.749zM12.953 1.073c.021.117.099.216.211.248.157.05.312.108.461.175a4.27 4.27 0 0 1 .437.23c.093.061.216.061.312-.012l.832-.609 1.075 1.175-.555.904a.35.35 0 0 0-.016.341l.213.484c.061.16.112.324.157.49.027.12.112.219.232.242l.982.21v1.658l-.982.21c-.107.023-.197.108-.227.23l-.16.504-.211.478a.34.34 0 0 0 .011.341l.557.909-1.075 1.175-.827-.606c-.088-.067-.211-.079-.312-.017a4.37 4.37 0 0 1-.443.233c-.147.067-.296.122-.448.172-.109.029-.2.122-.221.254l-.192 1.073h-1.517l-.192-1.073c-.021-.117-.099-.216-.211-.248a4.21 4.21 0 0 1-.461-.175c-.152-.07-.299-.146-.437-.23-.093-.061-.216-.061-.312.012l-.832.609-1.075-1.175.555-.904c.061-.096.072-.23.016-.341l-.213-.484c-.061-.16-.112-.324-.157-.49-.027-.12-.112-.219-.232-.242l-.981-.21V4.955l.981-.21c.107-.023.197-.108.227-.23l.16-.504.211-.478a.34.34 0 0 0-.011-.341l-.557-.909 1.075-1.175.827.606c.088.067.211.079.312.017.141-.085.288-.163.443-.233.147-.067.296-.122.448-.172.109-.029.2-.122.221-.254L11.244 0h1.518l.192 1.073zm1.008 2.568c-.501-.548-1.195-.886-1.96-.886s-1.459.338-1.96.886-.811 1.306-.811 2.142.309 1.594.811 2.142 1.195.886 1.96.886 1.459-.338 1.96-.886.811-1.306.811-2.142-.309-1.594-.811-2.142zm-1.96-1.533c-.928 0-1.768.411-2.376 1.076s-.984 1.583-.984 2.597.376 1.932.984 2.597 1.448 1.076 2.376 1.076 1.768-.411 2.376-1.076.984-1.583.984-2.597-.376-1.932-.984-2.597-1.448-1.076-2.376-1.076zm1.323 2.358l-1.784 1.95-.707-.772a.28.28 0 0 0-.419 0c-.117.125-.115.329 0 .458l.915 1a.28.28 0 0 0 .419 0l1.992-2.177c.115-.125.115-.329 0-.458s-.301-.125-.419 0h.003z" fill="#9eafca"/></g><defs><clipPath id="A"><path fill="#fff" d="M0 0h24v24H0z"/></clipPath></defs></svg>