<svg xmlns="http://www.w3.org/2000/svg" width="24" height="24" fill="none" xmlns:v="https://vecta.io/nano"><g clip-path="url(#A)" fill="#9eafca"><path d="M15.752 9.902c0 2.06-1.686 5.394-3.746 5.394S8.26 11.962 8.26 9.902a3.76 3.76 0 0 1 3.746-3.746 3.76 3.76 0 0 1 3.746 3.746zm-3.746-6.556c-4.795 0-8.654 3.858-8.654 8.654a8.66 8.66 0 0 0 8.654 8.654A8.66 8.66 0 0 0 20.659 12c0-4.795-3.858-8.654-8.653-8.654zM14.89 14.36c-.787 1.011-1.761 1.723-2.885 1.723s-2.135-.712-2.922-1.723c-1.349.412-2.847 1.236-3.371 2.473A7.77 7.77 0 0 1 4.064 12c0-4.383 3.559-7.904 7.904-7.904 4.383 0 7.904 3.559 7.904 7.904a7.85 7.85 0 0 1-1.648 4.833c-.45-1.236-1.948-2.06-3.334-2.472zM2.64 5.781l.15.862c.037.225.225.337.45.3a.39.39 0 0 0 .3-.45l-.3-1.723c-.037-.187-.262-.375-.487-.3l-1.723.3a.39.39 0 0 0-.3.45c.037.225.225.337.45.3l.824-.15c-2.847 4.271-2.66 9.89.562 14.01.112.15.375.187.524.075s.187-.375.075-.524C.13 15.072-.019 9.79 2.64 5.781zm16.296 15.06a11.2 11.2 0 0 1-13.111.524l.862-.15c.187-.037.337-.225.3-.412s-.225-.337-.412-.3l-1.761.262a.39.39 0 0 0-.3.45l.262 1.723c.037.225.225.337.412.3s.337-.225.3-.412l-.15-.862c4.308 2.884 9.927 2.697 14.01-.524.15-.112.187-.375.075-.524s-.337-.187-.487-.075zM5.075 3.159C8.934.125 14.178-.025 18.187 2.635l-.862.15c-.187.037-.337.225-.3.412s.225.337.412.3l1.761-.262c.187-.037.375-.225.3-.45l-.262-1.723c-.038-.187-.225-.337-.412-.3s-.337.225-.3.412l.15.862C14.366-.849 8.709-.662 4.626 2.56c-.15.112-.187.375-.075.524.15.15.375.187.524.075zm17.757 15.359l-.862.15c2.847-4.271 2.697-9.927-.524-14.01-.112-.15-.375-.187-.524-.075s-.187.375-.075.524c3.034 3.858 3.184 9.103.524 13.111l-.15-.862c-.038-.187-.225-.337-.412-.3s-.337.225-.3.412l.262 1.761c.037.15.187.337.412.3l1.761-.262c.187-.037.337-.225.3-.412 0-.262-.187-.375-.412-.337z"/></g><defs><clipPath id="A"><path fill="#fff" d="M0 0h24v24H0z"/></clipPath></defs></svg>