<svg xmlns="http://www.w3.org/2000/svg" width="24" height="24" fill="#9eafca" xmlns:v="https://vecta.io/nano"><path d="M22.707 16.867c-.716 0-1.293 1.293-1.293 2.884s.581 2.884 1.293 2.884S24 21.342 24 19.751s-.581-2.884-1.293-2.884zm-11.353-.139c-1.668 0-3.023 1.355-3.023 3.023s1.355 3.023 3.023 3.023 3.023-1.355 3.023-3.023-1.355-3.023-3.023-3.023zm1.367 2.512l-1.568 1.568a.38.38 0 0 1-.275.112.4.4 0 0 1-.275-.112l-.616-.616c-.151-.151-.151-.395 0-.546s.395-.151.546 0l.345.345 1.297-1.297c.151-.151.395-.151.546 0s.151.395 0 .546zm-1.367-3.286l.259.012V2.386C8.625.818 5.64 4.674 2.652 2.618v13.719c1.986.352 4.006.6 6.023.728a3.79 3.79 0 0 1 2.679-1.111zm-.735-2.032c-.406-.077-.844-.074-1.343.015-.023.004-.046.008-.07.008-.186 0-.348-.132-.379-.321a.39.39 0 0 1 .314-.449c.592-.104 1.126-.112 1.626-.016a.39.39 0 0 1 .31.453c-.046.213-.248.352-.457.31zm0-2.694c-.406-.077-.848-.073-1.347.015l-.066.008c-.186 0-.348-.132-.379-.321a.39.39 0 0 1 .314-.449c.596-.104 1.126-.108 1.626-.012.209.039.348.244.306.453s-.24.345-.453.306zM4.034 5.266c1.018.197 2.059-.163 3.163-.542 1.154-.395 2.342-.805 3.569-.569.209.039.348.244.306.453s-.24.348-.453.306c-1.022-.197-2.067.163-3.17.542-.917.314-1.858.639-2.818.639-.244 0-.492-.019-.739-.07-.209-.039-.348-.244-.306-.453.035-.209.24-.345.449-.306zM3.581 8.73c.039-.209.244-.348.453-.306 1.018.194 2.059-.163 3.163-.542 1.154-.395 2.342-.805 3.569-.569.209.039.348.244.306.453s-.24.348-.453.306c-1.022-.197-2.067.163-3.17.542-.917.314-1.858.639-2.818.639-.244 0-.492-.019-.739-.07a.39.39 0 0 1-.31-.453zm4.312 5.179c-1.312.43-2.621.995-3.933.747v-2.652c1.312.248 2.621-.317 3.933-.747v2.652zm4.494-11.523v13.719c.658.186 1.243.546 1.707 1.026 2.431-.097 4.866-.372 7.258-.797V2.614c-2.992 2.056-5.98-1.796-8.965-.228zm.848 8.079c1.227-.236 2.419.174 3.569.569 1.099.379 2.141.736 3.163.542.209-.039.414.097.453.306s-.097.414-.306.453a4.01 4.01 0 0 1-.739.07c-.964 0-1.904-.321-2.818-.639-1.103-.379-2.148-.735-3.17-.542-.213.039-.414-.097-.453-.306s.093-.41.302-.453zm-.306-2.698c-.039-.209.097-.414.306-.453 1.227-.236 2.419.174 3.569.569 1.099.379 2.141.735 3.163.542.209-.039.414.097.453.306s-.097.414-.306.453c-.248.046-.495.07-.739.07-.964 0-1.904-.321-2.818-.639-1.103-.379-2.148-.739-3.17-.542a.39.39 0 0 1-.457-.306zm7.184 7.726a3.98 3.98 0 0 1-.739.07c-.964 0-1.908-.325-2.826-.639-1.103-.379-2.148-.739-3.167-.542-.209.043-.414-.097-.453-.31s.097-.414.31-.453c1.223-.232 2.412.178 3.561.573 1.103.379 2.145.739 3.166.542.213-.039.414.097.453.31.039.205-.097.41-.306.449zm.306-9.917c.039.209-.097.414-.306.453-.248.046-.495.07-.739.07-.964 0-1.904-.321-2.818-.639-1.103-.379-2.148-.735-3.17-.542-.213.039-.414-.097-.453-.306s.097-.414.306-.453c1.227-.236 2.419.174 3.569.569 1.099.379 2.141.735 3.163.542.205-.043.406.093.449.306zM8.102 17.796a53.25 53.25 0 0 1-6.569-.879.65.65 0 0 0-.24-.05C.581 16.867 0 18.16 0 19.751s.581 2.884 1.293 2.884a.6.6 0 0 0 .201-.039c2.195-.437 4.401-.724 6.612-.886a3.77 3.77 0 0 1-.554-1.963 3.81 3.81 0 0 1 .55-1.951zm13.111-.654c-2.179.379-4.37.627-6.561.735a3.76 3.76 0 0 1-.004 3.751c2.195.108 4.386.356 6.569.736-.364-.65-.581-1.56-.581-2.617 0-1.045.217-1.955.577-2.605z"/></svg>