<svg xmlns="http://www.w3.org/2000/svg" width="24" height="24" fill="none" xmlns:v="https://vecta.io/nano"><g clip-path="url(#A)"><path fill-rule="evenodd" d="M12.026 0C18.643 0 24 5.357 24 12.026A11.97 11.97 0 0 1 12.026 24C5.357 24 0 18.643 0 12.026A11.99 11.99 0 0 1 12.026 0zm3.413 15.44l-2.101-2.783c.053-.21.105-.42.105-.63 0-.63-.368-1.155-.893-1.366l-.525-6.197-.578 6.197c-.525.21-.893.735-.893 1.366 0 .788.63 1.418 1.471 1.418.21 0 .42-.053.63-.105l2.783 2.101zm-3.413-3.939c-.315 0-.525.21-.525.525 0 .262.21.525.525.525.262 0 .525-.263.525-.525 0-.315-.263-.525-.525-.525zm6.617-6.775c.21-.158.473-.158.63 0 .21.158.21.473 0 .63l-.945.945c-.157.158-.42.158-.63 0a.48.48 0 0 1 0-.63l.945-.945zm3.204 6.827a.47.47 0 0 1 .473.473c0 .21-.21.42-.473.42h-1.313c-.263 0-.473-.21-.473-.42a.47.47 0 0 1 .473-.473h1.313zm-2.573 7.09c.21.21.21.473 0 .63-.157.21-.42.21-.63 0l-.945-.945c-.157-.157-.157-.42 0-.63.21-.157.473-.157.63 0l.945.945zm-6.827 3.204c0 .263-.21.473-.42.473a.47.47 0 0 1-.473-.473v-1.313a.47.47 0 0 1 .473-.473c.21 0 .42.21.42.473v1.313zm-7.09-2.573c-.158.21-.473.21-.63 0-.158-.157-.158-.42 0-.63l.945-.945a.48.48 0 0 1 .63 0c.158.21.158.473 0 .63l-.945.945zm-3.204-6.827c-.263 0-.42-.21-.42-.42 0-.263.158-.473.42-.473h1.313a.47.47 0 0 1 .473.473c0 .21-.21.42-.473.42H2.153zm2.573-7.09a.48.48 0 0 1 0-.63.48.48 0 0 1 .63 0l.945.945a.48.48 0 0 1 0 .63.48.48 0 0 1-.63 0l-.945-.945zm6.827-3.204c0-.263.21-.42.473-.42.21 0 .42.158.42.42v1.313c0 .263-.21.473-.42.473a.47.47 0 0 1-.473-.473V2.153z" fill="#9eafca"/></g><defs><clipPath id="A"><path fill="#fff" d="M0 0h24v24H0z"/></clipPath></defs></svg>