<svg xmlns="http://www.w3.org/2000/svg" width="24" height="24" fill="none" xmlns:v="https://vecta.io/nano"><g clip-path="url(#A)" fill="#9eafca"><path d="M18.389 7.283L12 10.477l-1.258-.629 5.031-2.946.861-.497 1.754.877zm-2.64-1.316l-.852.497-5.04 2.946-1.216-.612 6.157-3.31.952.48zm-1.862-.935L7.73 8.342 5.611 7.283l6.207-3.103c.116-.058.248-.058.364 0l1.705.852zM3.81 3.396H2.64c-.229 0-.414.185-.414.414s.185.414.414.414h.227C-.403 8.061-.948 13.591 1.606 18c.077.133.216.207.358.207a.41.41 0 0 0 .207-.056c.198-.115.265-.368.151-.565A11.17 11.17 0 0 1 3.396 4.883v.096c0 .229.185.414.414.414s.414-.185.414-.414V3.81c0-.229-.185-.414-.414-.414zM3.396 20.19v1.17c0 .229.185.414.414.414s.414-.185.414-.414v-.227c3.837 3.27 9.367 3.815 13.776 1.261.133-.077.207-.216.207-.358a.41.41 0 0 0-.056-.207c-.115-.198-.368-.265-.565-.151-4.057 2.351-9.134 1.879-12.701-1.074h.096c.229 0 .414-.185.414-.414s-.185-.414-.414-.414H3.81c-.229 0-.414.185-.414.414zm16.794.414h1.17c.229 0 .414-.185.414-.414s-.185-.414-.414-.414h-.227c3.27-3.837 3.815-9.367 1.261-13.775-.077-.133-.216-.206-.358-.206a.41.41 0 0 0-.207.056c-.198.115-.265.368-.151.565 2.351 4.057 1.879 9.134-1.074 12.701v-.096c0-.229-.185-.414-.414-.414s-.414.185-.414.414v1.17c0 .229.185.414.414.414zm.414-16.794V2.64c0-.229-.185-.414-.414-.414s-.414.185-.414.414v.227C15.939-.403 10.409-.948 6.001 1.606c-.133.077-.206.216-.206.358a.41.41 0 0 0 .056.207c.115.198.368.265.565.151C10.473-.029 15.55.443 19.117 3.396h-.096c-.229 0-.414.185-.414.414s.185.414.414.414h1.17c.229 0 .414-.185.414-.414zm-8.19 7.379v8.516l6.157-3.078c.141-.074.223-.215.223-.372V8.003l-6.38 3.186zm4.361 4.105l-1.068.53a.38.38 0 0 1-.182.05.41.41 0 0 1-.372-.232c-.099-.207-.017-.455.182-.554l1.067-.53c.207-.108.455-.025.554.182s.017.455-.182.554zm-5.189-4.105v8.516l-6.157-3.078c-.141-.074-.223-.215-.223-.372V8.003l.828.414 1.299.646v4.005c0 .149.083.298.223.364.141.075.306.058.43-.033l.654-.48.877 1.423a.43.43 0 0 0 .356.199.59.59 0 0 0 .116-.017c.174-.05.298-.215.298-.397v-3.583l1.299.646zM9.459 10.13v2.541l-.348-.571a.44.44 0 0 0-.273-.182c-.116-.025-.232 0-.323.066l-.356.265V9.476l1.299.654z"/></g><defs><clipPath id="A"><path fill="#fff" d="M0 0h24v24H0z"/></clipPath></defs></svg>