<svg xmlns="http://www.w3.org/2000/svg" width="24" height="24" fill="none" xmlns:v="https://vecta.io/nano"><g clip-path="url(#A)" fill-rule="evenodd" fill="#9eafca"><path d="M8.04 2.289h5.172c.538 0 1.007-.51 1.007-1.145S13.763 0 13.184 0H8.04c-.579 0-1.034.511-1.034 1.145 0 .621.469 1.145 1.034 1.145zM18.374.539h-2.486a1.88 1.88 0 0 1 .043.412c0 1.03-.736 2.045-1.633 2.045H6.664c-.927 0-1.677-1.015-1.677-2.045a1.98 1.98 0 0 1 .044-.412H2.516C.5.539 0 1.686 0 3.349v16.432c0 1.781.706 2.781 2.663 2.781h13.166c-.662-.794-1.059-1.81-1.059-2.928 0-2.516 2.03-4.561 4.546-4.561a4.63 4.63 0 0 1 1.809.368V3.334c0-1.647-.897-2.795-2.75-2.795zm-8.223 17.094H5.223c-.397 0-.648-.427-.648-.825s.339-.794.736-.794h4.899c.397 0 .735.368.765.794 0 .398-.427.825-.824.825zm5.826-4.531H5.179c-.398 0-.794-.486-.794-.897a.75.75 0 0 1 .735-.736h10.768c.397 0 .735.309.765.736 0 .396-.279.897-.677.897zm.045-4.678H5.223c-.397 0-.648-.427-.648-.824s.339-.794.736-.794h10.768c.397 0 .735.368.764.794 0 .383-.426.824-.823.824zm3.14 9.907a.59.59 0 0 0-.116.352.56.56 0 0 0 .106.326c.07.1.178.182.322.244v-1.147a.62.62 0 0 0-.312.226zm.792 2.01v1.293a.67.67 0 0 0 .404-.231.65.65 0 0 0 .156-.432c0-.148-.043-.276-.131-.383s-.231-.19-.43-.246zm-.213-4.576c-2.26 0-4.101 1.841-4.101 4.118A4.1 4.1 0 0 0 19.741 24c2.276 0 4.101-1.841 4.101-4.118-.017-2.277-1.842-4.118-4.101-4.118zm1.223 6.098c-.242.274-.579.442-1.01.504v.62h-.481v-.604c-.383-.047-.693-.189-.932-.428s-.391-.576-.457-1.012l.866-.093a1.1 1.1 0 0 0 .199.457c.097.128.206.221.325.278v-1.389c-.434-.124-.751-.311-.954-.562a1.41 1.41 0 0 1-.303-.913c0-.363.114-.667.343-.914s.533-.388.913-.426v-.328h.481v.328c.352.042.631.162.839.36s.341.462.398.794l-.839.109c-.051-.261-.183-.437-.398-.53v1.297c.531.144.892.33 1.084.558s.289.522.289.88c0 .4-.121.738-.363 1.012z"/></g><defs><clipPath id="A"><path fill="#fff" d="M0 0h24v24H0z"/></clipPath></defs></svg>