<svg xmlns="http://www.w3.org/2000/svg" width="24" height="24" fill="none" xmlns:v="https://vecta.io/nano"><g clip-path="url(#A)"><path fill-rule="evenodd" d="M23.629 9.414l-5.859 4.134a.86.86 0 0 0-.342.932l2.303 8.42c.098.358-.047.737-.362.947s-.73.203-1.039-.014l-5.799-4.092c-.316-.223-.744-.223-1.059 0l-5.799 4.092c-.309.218-.725.223-1.039.014s-.459-.589-.362-.947l2.303-8.42a.86.86 0 0 0-.342-.932h.001L.372 9.414a.86.86 0 0 1-.328-.979.9.9 0 0 1 .857-.604H8.07a.9.9 0 0 0 .857-.605L11.143.604A.9.9 0 0 1 12 0a.9.9 0 0 1 .857.604l2.216 6.621a.9.9 0 0 0 .857.605h7.168a.9.9 0 0 1 .857.604.86.86 0 0 1-.328.979h.001zm-1.938.431l-4.882 3.445c-.252.177-.365.486-.285.777l1.919 7.017a.72.72 0 0 1-.302.789.77.77 0 0 1-.866-.012l-4.833-3.41a.77.77 0 0 0-.883 0l-4.833 3.41a.77.77 0 0 1-.866.012.72.72 0 0 1-.302-.789l1.919-7.017c.08-.291-.033-.6-.285-.777L2.31 9.845c-.264-.186-.374-.515-.273-.816a.75.75 0 0 1 .714-.504h5.973a.75.75 0 0 0 .714-.504l1.846-5.517A.75.75 0 0 1 12 2a.75.75 0 0 1 .714.504l1.846 5.517a.75.75 0 0 0 .714.504h5.973a.75.75 0 0 1 .715.504c.101.301-.008.63-.272.816z" fill="#0e7490"/></g><defs><clipPath id="A"><path fill="#fff" d="M0 0h24v24H0z"/></clipPath></defs></svg>