<svg width="21" height="20" viewBox="0 0 21 20" fill="none" xmlns="http://www.w3.org/2000/svg">
<path fill-rule="evenodd" clip-rule="evenodd" d="M6.13598 5.36065C6.06024 5.36065 5.9876 5.33057 5.93405 5.27701C5.88049 5.22346 5.85041 5.15082 5.85041 5.07508C5.85041 4.99934 5.88049 4.92671 5.93405 4.87315C5.9876 4.8196 6.06024 4.78951 6.13598 4.78951H12.5016C12.5773 4.78951 12.65 4.8196 12.7035 4.87315C12.7571 4.92671 12.7872 4.99934 12.7872 5.07508C12.7872 5.15082 12.7571 5.22346 12.7035 5.27701C12.65 5.33057 12.5773 5.36065 12.5016 5.36065H6.13598ZM6.13598 6.87466C6.06024 6.87466 5.9876 6.84457 5.93405 6.79102C5.88049 6.73746 5.85041 6.66482 5.85041 6.58909C5.85041 6.51335 5.88049 6.44071 5.93405 6.38716C5.9876 6.3336 6.06024 6.30351 6.13598 6.30351H12.5016C12.5773 6.30351 12.65 6.3336 12.7035 6.38716C12.7571 6.44071 12.7872 6.51335 12.7872 6.58909C12.7872 6.66482 12.7571 6.73746 12.7035 6.79102C12.65 6.84457 12.5773 6.87466 12.5016 6.87466H6.13598ZM4.41398 4.66338L4.65339 4.40161C4.67842 4.37372 4.70873 4.35107 4.74257 4.33497C4.77641 4.31887 4.8131 4.30963 4.85053 4.30778C4.88796 4.30594 4.92538 4.31153 4.96064 4.32424C4.99589 4.33694 5.02828 4.35651 5.05593 4.3818C5.08358 4.40709 5.10595 4.43761 5.12174 4.4716C5.13752 4.50559 5.14642 4.54236 5.14791 4.57981C5.14941 4.61725 5.14347 4.65462 5.13043 4.68976C5.1174 4.72489 5.09754 4.7571 5.07199 4.78451L4.7788 5.10459C4.99603 5.48063 5.06401 5.92458 4.96924 6.34839C4.87448 6.7722 4.62389 7.14492 4.26719 7.39263C3.91048 7.64034 3.47371 7.74494 3.0435 7.68569C2.61328 7.62645 2.22104 7.40768 1.94457 7.07277C1.6681 6.73787 1.52759 6.31129 1.55091 5.87764C1.57422 5.44399 1.75967 5.03494 2.07046 4.73162C2.38125 4.42829 2.79468 4.25285 3.22877 4.24007C3.66286 4.2273 4.0859 4.37814 4.41398 4.66267V4.66338ZM2.54349 6.07339C2.47971 6.03322 2.4345 5.96936 2.41781 5.89585C2.40112 5.82235 2.41431 5.74522 2.45449 5.68144C2.49466 5.61767 2.55852 5.57246 2.63203 5.55577C2.70553 5.53908 2.78266 5.55227 2.84643 5.59244L3.30025 5.8792L4.0287 5.08436C3.81335 4.90282 3.53919 4.80604 3.25759 4.81214C2.976 4.81823 2.70629 4.9268 2.49899 5.11749C2.2917 5.30818 2.16105 5.56791 2.13152 5.84801C2.10198 6.12812 2.1756 6.40939 2.33857 6.63912C2.50153 6.86884 2.74267 7.03127 3.01681 7.09595C3.29094 7.16064 3.57925 7.12316 3.82773 6.99052C4.07621 6.85789 4.2678 6.6392 4.36661 6.37544C4.46541 6.11168 4.46466 5.82094 4.36448 5.5577L3.56964 6.42488C3.52566 6.47845 3.46369 6.5142 3.3953 6.52545C3.32691 6.5367 3.25675 6.5227 3.19792 6.48604L2.54349 6.07339ZM15.5808 11.8441C15.4396 11.7079 15.2669 11.6087 15.0782 11.5552C14.8895 11.5016 14.6904 11.4955 14.4988 11.5373C14.3071 11.5791 14.1287 11.6675 13.9794 11.7947C13.83 11.922 13.7144 12.0841 13.6427 12.2667C13.571 12.4493 13.5454 12.6467 13.5682 12.8416C13.5911 13.0364 13.6616 13.2226 13.7736 13.3837C13.8856 13.5447 14.0357 13.6757 14.2104 13.7649C14.3851 13.8541 14.5791 13.8989 14.7752 13.8952H14.7795C15.0951 13.8879 15.3949 13.7559 15.6134 13.5282C15.8319 13.3004 15.9513 12.9954 15.9456 12.6798V12.6756C15.939 12.3611 15.8076 12.062 15.5808 11.8441ZM14.7212 10.9417C14.9524 10.9375 15.1822 10.979 15.3974 11.0637C15.6126 11.1483 15.8091 11.2746 15.9755 11.4352C16.1419 11.5958 16.2751 11.7876 16.3674 11.9996C16.4597 12.2117 16.5093 12.4398 16.5134 12.671L16.5146 12.6756H16.5134C16.5205 13.1417 16.3424 13.5917 16.0182 13.9268C15.694 14.2618 15.2502 14.4547 14.784 14.463H14.7798C14.3127 14.4707 13.8617 14.2926 13.526 13.9678C13.1903 13.643 12.9973 13.1982 12.9896 12.7311C12.9818 12.2641 13.16 11.8131 13.4848 11.4774C13.8095 11.1416 14.2544 10.9487 14.7214 10.941L14.7212 10.9417ZM0.317936 2.15725H1.46593C1.54064 2.15651 1.61209 2.12652 1.66494 2.07371C1.71779 2.0209 1.74784 1.94949 1.74865 1.87478V0.423836L0.317936 2.15725ZM2.3186 0V1.87478C2.31816 2.10078 2.22819 2.31741 2.06838 2.47722C1.90856 2.63703 1.69194 2.72701 1.46593 2.72745H0V18.1607C0.00031166 18.2354 0.0301001 18.3071 0.082898 18.36C0.135696 18.4129 0.207241 18.4429 0.282002 18.4434H14.1765C14.2512 18.4426 14.3226 18.4125 14.3754 18.3597C14.4282 18.3068 14.4582 18.2354 14.459 18.1607V16.7476C14.2614 16.7386 14.0747 16.655 13.9365 16.5137C13.7982 16.3723 13.7188 16.1837 13.7143 15.9861C13.6398 15.9623 13.5661 15.9366 13.4937 15.908C13.4214 15.8794 13.3495 15.8485 13.2784 15.8145C13.1344 15.9622 12.9378 16.0471 12.7315 16.0506C12.5252 16.0541 12.3259 15.9759 12.177 15.833L11.7191 15.3916C11.5709 15.248 11.4854 15.0517 11.4812 14.8453C11.4771 14.639 11.5546 14.4394 11.697 14.29C11.6613 14.2211 11.6278 14.1506 11.5963 14.0784C11.5649 14.0062 11.5361 13.9336 11.5097 13.8604C11.3032 13.8634 11.1039 13.7844 10.9556 13.6407C10.8072 13.4969 10.722 13.3002 10.7184 13.0937L10.7068 12.4578C10.7032 12.2514 10.7815 12.052 10.9246 11.9032C11.0678 11.7544 11.2641 11.6685 11.4705 11.6642C11.4941 11.5894 11.5201 11.5159 11.5485 11.4436C11.5769 11.3712 11.6081 11.2994 11.642 11.2282C11.4943 11.0842 11.4094 10.8876 11.4059 10.6812C11.4024 10.4749 11.4806 10.2755 11.6235 10.1266L12.0654 9.66897C12.2089 9.52062 12.4052 9.43502 12.6116 9.43083C12.8179 9.42664 13.0176 9.5042 13.167 9.6466C13.2358 9.61107 13.3064 9.57751 13.3785 9.54594C13.4507 9.51437 13.5234 9.48549 13.5965 9.45932V9.45718H13.5953C13.5953 9.44837 13.5953 9.44004 13.5965 9.43147C13.6009 9.22989 13.6831 9.03782 13.826 8.89553C13.9688 8.75325 14.1612 8.6718 14.3628 8.66828H14.3673C14.374 8.66828 14.3804 8.66828 14.3869 8.66828L14.4601 8.66686V0.282716C14.4594 0.208006 14.4294 0.136563 14.3766 0.0837103C14.3238 0.0308578 14.2524 0.000805702 14.1777 0H2.3186ZM1.79077 19.0143H14.1765C14.4025 19.0139 14.6191 18.9239 14.7789 18.7641C14.9387 18.6043 15.0287 18.3876 15.0291 18.1616V16.7388L15.1436 16.7366C15.3501 16.733 15.5466 16.6477 15.6903 16.4993C15.8339 16.351 15.9129 16.1518 15.9099 15.9454C15.9829 15.9192 16.0556 15.8903 16.1281 15.8587C16.1693 15.8409 16.2102 15.8221 16.2504 15.8028V19.7175C16.2496 19.7921 16.2197 19.8635 16.1669 19.9163C16.1142 19.9691 16.0428 19.9991 15.9682 20H2.07349C1.99878 19.9993 1.92733 19.9693 1.87448 19.9165C1.82163 19.8636 1.79158 19.7922 1.79077 19.7175V19.0133V19.0143ZM16.2504 9.56783V1.83932C16.2504 1.80223 16.243 1.76552 16.2287 1.7313C16.2144 1.69708 16.1935 1.66602 16.1672 1.63989C16.1409 1.61378 16.1098 1.5931 16.0756 1.57901C16.0414 1.56492 16.0047 1.55771 15.9677 1.55779H15.0291V8.65662C15.2298 8.66141 15.4209 8.74334 15.5627 8.88538C15.7046 9.02743 15.7862 9.21866 15.7907 9.41934C15.8654 9.44282 15.9389 9.46884 16.0113 9.49739C16.0836 9.52595 16.1554 9.55712 16.2266 9.59092L16.2504 9.56712V9.56783ZM16.6924 9.94479C16.7316 9.92528 16.7759 9.91839 16.8192 9.92508C16.8625 9.93177 16.9026 9.95171 16.9342 9.98215L17.392 10.4236C17.412 10.4427 17.428 10.4656 17.439 10.4909C17.4501 10.5162 17.456 10.5435 17.4565 10.5711C17.4571 10.5991 17.4521 10.6269 17.4419 10.653C17.4317 10.679 17.4164 10.7028 17.397 10.723L17.2521 10.8734C17.2087 10.9184 17.1814 10.9766 17.1744 11.0388C17.1675 11.1009 17.1812 11.1637 17.2135 11.2172C17.345 11.4338 17.4466 11.667 17.5158 11.9107C17.5341 11.9747 17.5742 12.0303 17.6292 12.0678C17.6842 12.1053 17.7505 12.1225 17.8168 12.1163L17.9984 12.113V12.1142C18.0053 12.1142 18.0124 12.1142 18.0193 12.1142C18.0717 12.1176 18.1209 12.1401 18.1578 12.1774C18.1946 12.2148 18.2165 12.2643 18.2192 12.3167C18.2192 12.3269 18.2197 12.3368 18.2206 12.3467L18.2318 12.9526C18.2318 12.9597 18.2318 12.9666 18.2318 12.9735C18.2285 13.0242 18.2072 13.072 18.1719 13.1084C18.1345 13.1478 18.0833 13.1711 18.0291 13.1734C18.0191 13.1734 18.0089 13.1734 17.9991 13.1751L17.8161 13.1784C17.7534 13.1794 17.6927 13.2012 17.6437 13.2403C17.5946 13.2793 17.5598 13.3336 17.5448 13.3945C17.4839 13.6402 17.3909 13.8769 17.2683 14.0984C17.2378 14.1532 17.2264 14.2165 17.2357 14.2785C17.245 14.3405 17.2745 14.3977 17.3197 14.4411L17.4698 14.586C17.4898 14.6052 17.5058 14.628 17.5168 14.6534C17.5279 14.6787 17.5339 14.7059 17.5343 14.7336C17.5349 14.7616 17.5299 14.7894 17.5197 14.8154C17.5095 14.8415 17.4942 14.8653 17.4748 14.8854L17.0334 15.3433C17.0143 15.3632 16.9914 15.3792 16.966 15.3902C16.9407 15.4012 16.9135 15.4071 16.8858 15.4075C16.8343 15.4085 16.7841 15.3909 16.7445 15.3578C16.7366 15.3494 16.7283 15.3414 16.7195 15.334L16.5836 15.2031C16.5384 15.1599 16.4803 15.1327 16.4182 15.1257C16.3561 15.1187 16.2934 15.1323 16.2397 15.1643C16.0233 15.296 15.7901 15.3977 15.5463 15.4666C15.4822 15.4849 15.4266 15.5251 15.3891 15.5801C15.3516 15.6351 15.3344 15.7015 15.3407 15.7678L15.344 15.9537C15.3444 15.9816 15.3394 16.0094 15.329 16.0354C15.3187 16.0614 15.3033 16.085 15.2838 16.105C15.2648 16.1251 15.2419 16.1412 15.2167 16.1524C15.1914 16.1636 15.1641 16.1697 15.1365 16.1702L14.7655 16.1769H14.746C14.7356 16.1769 14.7257 16.1774 14.716 16.1783L14.5051 16.1821C14.498 16.1821 14.4911 16.1821 14.4842 16.1821C14.4335 16.179 14.3856 16.1578 14.3493 16.1224C14.3099 16.085 14.2866 16.0338 14.2843 15.9796C14.2843 15.9694 14.2843 15.9594 14.2826 15.9494L14.2793 15.7664C14.2783 15.7037 14.2565 15.643 14.2174 15.594C14.1783 15.5449 14.1241 15.5101 14.0632 15.4951C13.8175 15.4339 13.5809 15.341 13.3593 15.2186C13.3045 15.1881 13.2412 15.1766 13.1792 15.1859C13.1172 15.1951 13.0601 15.2246 13.0166 15.2697L12.8717 15.4201C12.8525 15.4401 12.8296 15.456 12.8043 15.467C12.779 15.4781 12.7517 15.484 12.7241 15.4844C12.6677 15.4854 12.6131 15.4641 12.5723 15.4251L12.113 14.9813C12.0931 14.9621 12.0771 14.9392 12.0661 14.9138C12.0551 14.8885 12.0492 14.8612 12.0487 14.8335C12.0477 14.7771 12.069 14.7225 12.108 14.6817L12.2529 14.5315C12.2961 14.4864 12.3233 14.4283 12.3303 14.3661C12.3373 14.304 12.3238 14.2413 12.2917 14.1877C12.1599 13.9713 12.0582 13.738 11.9895 13.4942C11.9711 13.4302 11.9309 13.3747 11.8759 13.3372C11.8209 13.2997 11.7545 13.2826 11.6882 13.2888L11.5023 13.2922C11.4744 13.2926 11.4466 13.2874 11.4207 13.2771C11.3947 13.2668 11.371 13.2514 11.351 13.232C11.3309 13.2129 11.3148 13.1901 11.3037 13.1648C11.2925 13.1395 11.2864 13.1123 11.2858 13.0846L11.2741 12.4488C11.2734 12.3923 11.2951 12.3378 11.3343 12.2972C11.3534 12.2772 11.3762 12.2611 11.4015 12.25C11.4268 12.2388 11.454 12.2328 11.4816 12.2322L11.6903 12.2284C11.7531 12.2274 11.8137 12.2056 11.8628 12.1666C11.9119 12.1275 11.9466 12.0732 11.9616 12.0123C12.023 11.7668 12.1162 11.5303 12.2389 11.3089C12.2692 11.254 12.2805 11.1907 12.2713 11.1288C12.262 11.0668 12.2327 11.0096 12.1877 10.9659L12.0373 10.821C12.0174 10.8018 12.0015 10.7789 11.9904 10.7535C11.9794 10.7282 11.9735 10.7009 11.9731 10.6732C11.9721 10.6169 11.9934 10.5624 12.0323 10.5216L12.4738 10.0638C12.4929 10.0438 12.5159 10.0279 12.5412 10.0168C12.5666 10.0057 12.5939 9.99978 12.6215 9.99929C12.678 9.99832 12.7326 10.0197 12.7734 10.0588L12.9235 10.2037C12.9687 10.2469 13.0269 10.274 13.089 10.281C13.1511 10.288 13.2138 10.2744 13.2674 10.2423C13.4839 10.1107 13.7171 10.009 13.9609 9.94003C14.0248 9.92163 14.0803 9.88149 14.1178 9.82653C14.1553 9.77156 14.1724 9.70523 14.1662 9.63899L14.1632 9.45765C14.1632 9.45075 14.1632 9.44361 14.1632 9.43671C14.1666 9.38437 14.1891 9.33511 14.2264 9.29827C14.2637 9.26142 14.3133 9.23955 14.3657 9.23681C14.3759 9.23681 14.3859 9.23681 14.3959 9.23538L14.7241 9.22943H14.7436C14.7538 9.22943 14.7638 9.22943 14.7738 9.228L15.0015 9.22372V9.22491C15.0085 9.22527 15.0155 9.22527 15.0225 9.22491C15.0731 9.22827 15.121 9.24953 15.1574 9.28488C15.1967 9.32228 15.22 9.37346 15.2224 9.42767C15.2224 9.43766 15.2224 9.44789 15.2238 9.45765L15.2271 9.64066C15.2282 9.70339 15.2499 9.76402 15.289 9.81309C15.3281 9.86217 15.3823 9.89693 15.4432 9.91195C15.689 9.97274 15.9257 10.0657 16.1472 10.1885C16.202 10.2187 16.2653 10.2301 16.3273 10.2208C16.3893 10.2115 16.4465 10.1821 16.4901 10.1371L16.635 9.98691C16.6448 9.9767 16.6557 9.96753 16.6674 9.95954C16.6759 9.95478 16.6845 9.94979 16.6926 9.94455L16.6924 9.94479ZM6.13598 14.7733C6.06024 14.7733 5.9876 14.7432 5.93405 14.6897C5.88049 14.6361 5.85041 14.5635 5.85041 14.4878C5.85041 14.412 5.88049 14.3394 5.93405 14.2858C5.9876 14.2323 6.06024 14.2022 6.13598 14.2022H9.71752C9.79326 14.2022 9.86589 14.2323 9.91945 14.2858C9.973 14.3394 10.0031 14.412 10.0031 14.4878C10.0031 14.5635 9.973 14.6361 9.91945 14.6897C9.86589 14.7432 9.79326 14.7733 9.71752 14.7733H6.13598ZM6.13598 16.2873C6.06024 16.2873 5.9876 16.2572 5.93405 16.2037C5.88049 16.1501 5.85041 16.0775 5.85041 16.0018C5.85041 15.926 5.88049 15.8534 5.93405 15.7998C5.9876 15.7463 6.06024 15.7162 6.13598 15.7162H10.471C10.5467 15.7162 10.6193 15.7463 10.6729 15.7998C10.7264 15.8534 10.7565 15.926 10.7565 16.0018C10.7565 16.0775 10.7264 16.1501 10.6729 16.2037C10.6193 16.2572 10.5467 16.2873 10.471 16.2873H6.13598ZM4.41398 14.0763L4.65339 13.8145C4.67842 13.7866 4.70873 13.764 4.74257 13.7479C4.77641 13.7318 4.8131 13.7225 4.85053 13.7207C4.88796 13.7189 4.92538 13.7244 4.96064 13.7372C4.99589 13.7499 5.02828 13.7694 5.05593 13.7947C5.08358 13.82 5.10595 13.8505 5.12174 13.8845C5.13752 13.9185 5.14642 13.9553 5.14791 13.9927C5.14941 14.0302 5.14347 14.0675 5.13043 14.1027C5.1174 14.1378 5.09754 14.17 5.07199 14.1974L4.7788 14.5175C4.9964 14.8938 5.06462 15.3381 4.96995 15.7623C4.87527 16.1866 4.62461 16.5597 4.26768 16.8078C3.91074 17.0558 3.47362 17.1607 3.043 17.1015C2.61238 17.0423 2.21973 16.8235 1.94292 16.4883C1.66611 16.1532 1.52538 15.7263 1.54862 15.2923C1.57187 14.8582 1.75739 14.4488 2.06841 14.1451C2.37943 13.8415 2.79321 13.6658 3.22768 13.653C3.66216 13.6401 4.08558 13.7911 4.41398 14.0758V14.0763ZM2.54349 15.4858L3.19745 15.8987C3.25632 15.9355 3.32658 15.9496 3.39508 15.9383C3.46358 15.9271 3.52564 15.8912 3.56964 15.8376L4.36496 14.9699C4.46627 15.2338 4.46785 15.5255 4.36941 15.7905C4.27097 16.0554 4.07927 16.2753 3.83025 16.409C3.58123 16.5427 3.29199 16.581 3.01677 16.5167C2.74154 16.4523 2.49923 16.2898 2.33527 16.0596C2.17131 15.8294 2.09695 15.5473 2.12614 15.2661C2.15533 14.985 2.28607 14.7242 2.49383 14.5326C2.70159 14.3409 2.97212 14.2317 3.25469 14.2253C3.53726 14.2189 3.81246 14.3157 4.0287 14.4977L3.30025 15.2926L2.84643 15.007C2.78267 14.9689 2.70653 14.9573 2.6343 14.9746C2.56207 14.9919 2.49947 15.0368 2.4599 15.0996C2.42032 15.1625 2.40691 15.2383 2.42254 15.3109C2.43816 15.3836 2.48157 15.4472 2.54349 15.4882V15.4858ZM6.13693 10.0669C6.09796 10.0694 6.05888 10.0639 6.02212 10.0507C5.98536 10.0375 5.95169 10.0169 5.9232 9.99024C5.89471 9.96353 5.872 9.93126 5.85647 9.89542C5.84095 9.85959 5.83294 9.82095 5.83294 9.78189C5.83294 9.74284 5.84095 9.7042 5.85647 9.66837C5.872 9.63253 5.89471 9.60026 5.9232 9.57355C5.95169 9.54684 5.98536 9.52626 6.02212 9.51308C6.05888 9.4999 6.09796 9.4944 6.13693 9.49692H10.471C10.5099 9.4944 10.549 9.4999 10.5858 9.51308C10.6225 9.52626 10.6562 9.54684 10.6847 9.57355C10.7132 9.60026 10.7359 9.63253 10.7514 9.66837C10.7669 9.7042 10.7749 9.74284 10.7749 9.78189C10.7749 9.82095 10.7669 9.85959 10.7514 9.89542C10.7359 9.93126 10.7132 9.96353 10.6847 9.99024C10.6562 10.0169 10.6225 10.0375 10.5858 10.0507C10.549 10.0639 10.5099 10.0694 10.471 10.0669H6.13693ZM6.13693 11.5809C6.06119 11.5809 5.98856 11.5508 5.935 11.4972C5.88145 11.4437 5.85136 11.371 5.85136 11.2953C5.85136 11.2196 5.88145 11.1469 5.935 11.0934C5.98856 11.0398 6.06119 11.0097 6.13693 11.0097H9.71847C9.79421 11.0097 9.86685 11.0398 9.9204 11.0934C9.97396 11.1469 10.004 11.2196 10.004 11.2953C10.004 11.371 9.97396 11.4437 9.9204 11.4972C9.86685 11.5508 9.79421 11.5809 9.71847 11.5809H6.13693ZM4.41494 9.36984L4.65434 9.10806C4.70515 9.05255 4.77592 9.0195 4.8511 9.01618C4.92628 9.01285 4.9997 9.03953 5.05521 9.09034C5.11072 9.14114 5.14377 9.21192 5.1471 9.2871C5.15042 9.36228 5.12375 9.4357 5.07294 9.49121L4.77975 9.81128C4.99711 10.1875 5.06514 10.6316 4.97035 11.0556C4.87557 11.4796 4.62489 11.8525 4.26804 12.1003C3.91119 12.3482 3.47423 12.4528 3.04382 12.3936C2.61342 12.3343 2.221 12.1154 1.94441 11.7804C1.66782 11.4453 1.52725 11.0186 1.55059 10.5847C1.57392 10.1509 1.75946 9.74167 2.0704 9.43822C2.38133 9.13477 2.79496 8.95927 3.22924 8.94651C3.66351 8.93376 4.08673 9.08469 4.41494 9.36936V9.36984ZM2.54444 10.7794L3.1984 11.1923C3.25712 11.2293 3.32737 11.2435 3.39586 11.2322C3.46436 11.2209 3.52635 11.185 3.57012 11.1311L4.36544 10.2637C4.46616 10.5277 4.46712 10.8195 4.36814 11.0842C4.26915 11.3489 4.07702 11.5684 3.82776 11.7016C3.5785 11.8347 3.28922 11.8724 3.01416 11.8076C2.73909 11.7427 2.49712 11.5798 2.3336 11.3493C2.17008 11.1188 2.09625 10.8366 2.12593 10.5555C2.15562 10.2745 2.28679 10.0139 2.49486 9.82266C2.70293 9.63141 2.97361 9.52261 3.25615 9.51666C3.5387 9.51071 3.81372 9.60802 4.02965 9.79034L3.30121 10.5849L2.84739 10.2994C2.81581 10.2795 2.78062 10.266 2.74383 10.2597C2.70704 10.2534 2.66937 10.2544 2.63298 10.2627C2.59658 10.271 2.56217 10.2863 2.53171 10.3079C2.50125 10.3294 2.47533 10.3568 2.45544 10.3884C2.43555 10.42 2.42207 10.4551 2.41578 10.4919C2.40949 10.5287 2.4105 10.5664 2.41877 10.6028C2.42703 10.6392 2.44238 10.6736 2.46395 10.7041C2.48551 10.7345 2.51286 10.7604 2.54444 10.7803V10.7794ZM18.4493 9.16565L18.3791 8.53311C19.0277 9.09662 19.5359 9.80364 19.8633 10.598C20.1907 11.3923 20.3283 12.2521 20.2652 13.109C20.2021 13.9658 19.9399 14.7961 19.4996 15.5339C19.0593 16.2717 18.4529 16.8966 17.7288 17.3589C17.6721 17.4026 17.634 17.4659 17.6218 17.5363C17.6096 17.6068 17.6242 17.6792 17.6629 17.7394C17.7015 17.7995 17.7613 17.843 17.8304 17.8612C17.8995 17.8794 17.973 17.8711 18.0362 17.8377C18.8348 17.3277 19.5034 16.6385 19.9888 15.8248C20.4743 15.0111 20.7633 14.0954 20.8329 13.1505C20.9024 12.2055 20.7506 11.2574 20.3894 10.3814C20.0283 9.50537 19.4678 8.72569 18.7525 8.10428L19.351 8.03765C19.4212 8.02382 19.4837 7.98414 19.526 7.92645C19.5684 7.86877 19.5875 7.7973 19.5797 7.72617C19.5719 7.65505 19.5376 7.58946 19.4837 7.54238C19.4298 7.49531 19.3602 7.47018 19.2887 7.47198L17.991 7.61619C17.9161 7.62458 17.8476 7.66223 17.8003 7.72094C17.7531 7.77964 17.7309 7.85465 17.7387 7.92961L17.8827 9.22729C17.8966 9.2975 17.9362 9.35995 17.9939 9.4023C18.0516 9.44464 18.1231 9.46379 18.1942 9.45595C18.2653 9.44811 18.3309 9.41386 18.378 9.35997C18.4251 9.30607 18.4502 9.23647 18.4484 9.16494L18.4493 9.16565Z" fill="#CF810D"/>
</svg>
