<svg width="27" height="20" viewBox="0 0 27 20" fill="none" xmlns="http://www.w3.org/2000/svg">
<path d="M16.8889 3.32857e-05C13.9244 3.32857e-05 11.1555 1.32002 9.28444 3.62668C9.12886 3.81779 9.15998 4.09779 9.35109 4.25336C9.54219 4.40891 9.82219 4.37779 9.97777 4.18669C11.5822 2.20446 13.92 1.02225 16.4444 0.90224V4.46669C15.3467 4.55558 14.2933 4.99113 13.4444 5.70668C13.2533 5.86225 13.2311 6.14225 13.3866 6.33336C13.5466 6.52002 13.8266 6.54223 14.0133 6.38224C14.8178 5.70668 15.84 5.33336 16.8889 5.33336C19.3377 5.33336 21.3333 7.32891 21.3333 9.77779C21.3597 12.5111 18.8002 14.6501 16.1155 14.1555C15.8711 14.1111 15.6444 14.2711 15.6044 14.5156C15.56 14.7556 15.72 14.9867 15.9644 15.0267C17.5187 15.3232 19.1953 14.8356 20.3302 13.8476L22.8502 16.3675L22.8488 16.3689C20.6351 18.452 17.0572 19.251 14.0755 18.2133C13.8444 18.1378 13.5911 18.2622 13.5155 18.4978C13.44 18.7289 13.5644 18.9822 13.8 19.0578C17.2198 20.2517 21.3045 19.2274 23.7422 16.7467C23.7573 16.7315 23.7716 16.7172 23.786 16.7029C23.7987 16.6962 23.8075 16.6874 23.8142 16.6747C23.8292 16.6566 23.8513 16.6441 23.8622 16.6222C29.8942 10.5651 25.5253 -0.0216596 16.8889 3.32857e-05ZM19.5955 2.70668C19.6977 2.48446 19.96 2.38669 20.1822 2.48446C21.7822 3.2089 23.12 4.46224 23.9466 6.00889C24.2134 6.52956 23.4552 6.93723 23.1644 6.4311C22.4266 5.05336 21.24 3.9378 19.8178 3.29335C19.5911 3.19558 19.4933 2.9289 19.5955 2.70668ZM23.48 15.7378L23.4787 15.739L20.9587 13.2191L20.96 13.2178C21.6577 12.3956 22.1111 11.36 22.2044 10.2222H25.7644C25.6622 12.3378 24.8177 14.2622 23.48 15.7378Z" fill="#D22779"/>
<path d="M13.9733 16.5289C13.9733 16.4133 13.9244 16.2978 13.84 16.2178L12.6978 15.0711C12.8355 14.8 12.9511 14.5156 13.0489 14.2222H14.6666C14.9111 14.2222 15.1111 14.0222 15.1111 13.7778V11.1111C15.1111 10.8667 14.9111 10.6667 14.6666 10.6667H13.0489C12.9511 10.3733 12.8355 10.0889 12.6978 9.81778L13.84 8.67113C14.0175 8.5077 14.0143 8.20876 13.84 8.04445L11.9555 6.16002C11.7822 5.98668 11.5022 5.98668 11.3289 6.16002L10.1822 7.30224C9.91109 7.16446 9.62664 7.0489 9.33332 6.95114V5.33336C9.33332 5.08892 9.13331 4.88891 8.88887 4.88891H6.22221C5.97777 4.88891 5.77777 5.08892 5.77777 5.33336V6.95114C5.48445 7.0489 5.2 7.16446 4.92889 7.30224L3.78222 6.16002C3.60888 5.98668 3.32888 5.98668 3.15554 6.16002L1.2711 8.04445C1.09693 8.20861 1.09342 8.50788 1.2711 8.67113L2.41333 9.81778C2.27555 10.0889 2.15999 10.3733 2.06223 10.6667H0.444444C0.200005 10.6667 0 10.8667 0 11.1111V13.7778C0 14.0222 0.200005 14.2222 0.444444 14.2222H2.06223C2.15999 14.5156 2.27555 14.8 2.41333 15.0711L1.2711 16.2178C1.09361 16.3812 1.09676 16.6801 1.27111 16.8444L3.15554 18.7289C3.32888 18.9022 3.60888 18.9022 3.78222 18.7289L4.92889 17.5867C5.2 17.7245 5.48445 17.84 5.77777 17.9378V19.5556C5.77777 19.8 5.97777 20 6.22221 20H8.88887C9.13331 20 9.33332 19.8 9.33332 19.5556V17.9378C9.62664 17.84 9.91109 17.7245 10.1822 17.5867L11.3289 18.7289C11.5022 18.9022 11.7822 18.9022 11.9555 18.7289L13.84 16.8444C13.9244 16.76 13.9733 16.6489 13.9733 16.5289ZM9.33332 12.4445C9.26129 14.7944 5.84945 14.7939 5.77777 12.4444C5.84978 10.0945 9.26166 10.095 9.33332 12.4445Z" fill="#D22779"/>
</svg>
