<svg width="20" height="20" viewBox="0 0 20 20" fill="none" xmlns="http://www.w3.org/2000/svg">
<path fill-rule="evenodd" clip-rule="evenodd" d="M2.85714 5C1.67368 5 0.714286 4.04061 0.714286 2.85714C0.714286 1.67368 1.67368 0.714286 2.85714 0.714286C4.04061 0.714286 5 1.67368 5 2.85714C5 4.04061 4.04061 5 2.85714 5ZM2.85714 19.2857C1.67368 19.2857 0.714286 18.3264 0.714286 17.1429C0.714286 15.9594 1.67368 15 2.85714 15C4.04061 15 5 15.9594 5 17.1429C5 18.3264 4.04061 19.2857 2.85714 19.2857ZM10 19.2857C8.8165 19.2857 7.85714 18.3264 7.85714 17.1429C7.85714 15.9594 8.8165 15 10 15H17.1429C18.3264 15 19.2857 15.9594 19.2857 17.1429C19.2857 18.3264 18.3264 19.2857 17.1429 19.2857H10ZM2.85714 7.85714H10C11.1835 7.85714 12.1429 8.8165 12.1429 10C12.1429 11.1835 11.1835 12.1429 10 12.1429H2.85714C1.67368 12.1429 0.714286 11.1835 0.714286 10C0.714286 8.8165 1.67368 7.85714 2.85714 7.85714ZM17.1429 12.1429C15.9594 12.1429 15 11.1835 15 10C15 8.8165 15.9594 7.85714 17.1429 7.85714C18.3264 7.85714 19.2857 8.8165 19.2857 10C19.2857 11.1835 18.3264 12.1429 17.1429 12.1429ZM10 0.714286H17.1429C18.3264 0.714286 19.2857 1.67368 19.2857 2.85714C19.2857 4.04061 18.3264 5 17.1429 5H10C8.8165 5 7.85714 4.04061 7.85714 2.85714C7.85714 1.67368 8.8165 0.714286 10 0.714286ZM0 2.85714C0 1.27919 1.27919 0 2.85714 0C4.4351 0 5.71429 1.27919 5.71429 2.85714C5.71429 4.4351 4.4351 5.71429 2.85714 5.71429C1.27919 5.71429 0 4.4351 0 2.85714ZM0 17.1429C0 15.5649 1.27919 14.2857 2.85714 14.2857C4.4351 14.2857 5.71429 15.5649 5.71429 17.1429C5.71429 18.7208 4.4351 20 2.85714 20C1.27919 20 0 18.7208 0 17.1429ZM10 14.2857C8.42207 14.2857 7.14286 15.5649 7.14286 17.1429C7.14286 18.7208 8.42207 20 10 20H17.1429C18.7208 20 20 18.7208 20 17.1429C20 15.5649 18.7208 14.2857 17.1429 14.2857H10ZM0 10C0 8.42207 1.27919 7.14286 2.85714 7.14286H10C11.5779 7.14286 12.8571 8.42207 12.8571 10C12.8571 11.5779 11.5779 12.8571 10 12.8571H2.85714C1.27919 12.8571 0 11.5779 0 10ZM17.1429 7.14286C15.5649 7.14286 14.2857 8.42207 14.2857 10C14.2857 11.5779 15.5649 12.8571 17.1429 12.8571C18.7208 12.8571 20 11.5779 20 10C20 8.42207 18.7208 7.14286 17.1429 7.14286ZM7.14286 2.85714C7.14286 1.27919 8.42207 0 10 0H17.1429C18.7208 0 20 1.27919 20 2.85714C20 4.4351 18.7208 5.71429 17.1429 5.71429H10C8.42207 5.71429 7.14286 4.4351 7.14286 2.85714Z" fill="#008DA6"/>
</svg>
