<svg width="22" height="20" viewBox="0 0 22 20" fill="none" xmlns="http://www.w3.org/2000/svg">
<path fill-rule="evenodd" clip-rule="evenodd" d="M4.52028 13.7139C5.10809 13.7139 5.64003 13.4758 6.0238 13.0896C6.40758 12.7059 6.64562 12.1739 6.64562 11.5861C6.64562 10.9983 6.40758 10.4664 6.0238 10.0826C5.64003 9.69881 5.10809 9.45834 4.52028 9.45834C3.93248 9.45834 3.40053 9.69638 3.01676 10.0826C2.63299 10.4664 2.39252 10.9983 2.39252 11.5861C2.39252 12.1739 2.63056 12.7059 3.01676 13.0896C3.40053 13.4734 3.93248 13.7139 4.52028 13.7139ZM7.80666 16.9881C7.00024 17.7556 6.47802 18.8171 6.40758 20H15.4481C15.3801 18.8171 14.8555 17.7556 14.0491 16.9881C13.2378 16.2157 12.1375 15.7396 10.9279 15.7396C9.71824 15.7396 8.61793 16.2133 7.80666 16.9881ZM8.12971 16.0457C7.88195 16.2108 7.6512 16.3954 7.43503 16.5995C6.88122 17.1265 6.44644 17.7775 6.17683 18.5111H0C0.0680107 17.3282 0.592665 16.2667 1.39908 15.4991C2.21035 14.7267 3.31066 14.2507 4.52028 14.2507C5.29512 14.2507 6.02138 14.4426 6.65533 14.785C7.23342 15.0935 7.73622 15.5259 8.12971 16.0457ZM10.9279 15.2028C11.5157 15.2028 12.0476 14.9648 12.4314 14.5786C12.8152 14.1948 13.0556 13.6629 13.0556 13.0751C13.0556 12.4872 12.8176 11.9553 12.4314 11.5715C12.0476 11.1878 11.5157 10.9473 10.9279 10.9473C10.3401 10.9473 9.80811 11.1853 9.42434 11.5715C9.04056 11.9553 8.8001 12.4872 8.8001 13.0751C8.8001 13.6629 9.03814 14.1948 9.42434 14.5786C9.80811 14.9624 10.3401 15.2028 10.9279 15.2028ZM13.726 16.0457C14.1195 15.5259 14.6223 15.0935 15.2004 14.785C15.8343 14.445 16.563 14.2507 17.3379 14.2507C18.5475 14.2507 19.6478 14.7243 20.4591 15.4991C21.2655 16.2667 21.7877 17.3282 21.8582 18.5111H15.6789C15.4093 17.7799 14.9745 17.129 14.4207 16.5995C14.2069 16.3954 13.9738 16.2108 13.726 16.0457ZM17.3379 13.7139C17.9257 13.7139 18.4576 13.4758 18.8414 13.0896C19.2252 12.7059 19.4656 12.1739 19.4656 11.5861C19.4656 10.9983 19.2276 10.4664 18.8414 10.0826C18.4576 9.69881 17.9257 9.45834 17.3379 9.45834C16.7501 9.45834 16.2181 9.69638 15.8343 10.0826C15.4506 10.4664 15.2125 10.9983 15.2125 11.5861C15.2125 12.1739 15.4506 12.7059 15.8343 13.0896C16.2181 13.4734 16.7501 13.7139 17.3379 13.7139ZM11.7974 0.893855C11.8169 0.991013 11.8873 1.0736 11.9893 1.10032C12.1326 1.14161 12.2735 1.19019 12.4095 1.24605C12.548 1.30435 12.6816 1.3675 12.8079 1.43794C12.8929 1.48895 13.0046 1.48895 13.0921 1.42822L13.8499 0.920573L14.8288 1.89944L14.3235 2.65242C14.2677 2.73257 14.258 2.8443 14.309 2.9366C14.3794 3.06534 14.445 3.19893 14.5033 3.33981C14.5591 3.4734 14.6053 3.60942 14.6466 3.74787C14.6709 3.84746 14.7486 3.93005 14.8579 3.94948L15.7518 4.12436V5.50644L14.8579 5.68132C14.7607 5.70075 14.6782 5.77119 14.6514 5.87321C14.6102 6.01652 14.5616 6.1574 14.5057 6.29342C14.4474 6.43187 14.3843 6.56546 14.3138 6.69177C14.2628 6.77678 14.2628 6.88851 14.3235 6.97595L14.8312 7.73379L13.8523 8.71266L13.0993 8.20743C13.0192 8.15157 12.9075 8.14185 12.8152 8.19286C12.6864 8.2633 12.5528 8.32888 12.412 8.38718C12.2784 8.44304 12.1423 8.48919 12.0039 8.53048C11.9043 8.55477 11.8217 8.6325 11.8023 8.7418L11.6274 9.63566H10.2453L10.0704 8.7418C10.051 8.64464 9.98057 8.56206 9.87855 8.53534C9.73524 8.49405 9.59437 8.44547 9.45834 8.3896C9.31989 8.33131 9.1863 8.26816 9.06 8.19772C8.97498 8.14671 8.86325 8.14671 8.77581 8.20743L8.01797 8.71508L7.03911 7.73622L7.54433 6.98324C7.6002 6.90309 7.60991 6.79135 7.5589 6.69905C7.48846 6.57032 7.42288 6.43673 7.36459 6.29585C7.30872 6.16225 7.26257 6.02623 7.22128 5.88778C7.19699 5.7882 7.11926 5.70561 7.00996 5.68618L6.1161 5.51129V4.12922L7.00996 3.95434C7.10712 3.9349 7.1897 3.86446 7.21642 3.76245C7.25771 3.61914 7.30629 3.47826 7.36216 3.34224C7.42045 3.20379 7.4836 3.0702 7.55404 2.94389C7.60505 2.85888 7.60505 2.74715 7.54433 2.6597L7.03668 1.90187L8.01555 0.923002L8.76852 1.42822C8.84868 1.48409 8.96041 1.49381 9.05271 1.4428C9.18144 1.37236 9.31504 1.30678 9.45592 1.24848C9.58951 1.19262 9.72553 1.14647 9.86398 1.10517C9.96357 1.08088 10.0462 1.00316 10.0656 0.893855L10.2405 0H11.6225L11.7974 0.893855ZM12.7156 3.03376C12.2589 2.57712 11.6274 2.29536 10.9303 2.29536C10.2332 2.29536 9.60165 2.57712 9.14501 3.03376C8.68837 3.49041 8.40661 4.12193 8.40661 4.81904C8.40661 5.51615 8.68837 6.14768 9.14501 6.60432C9.60165 7.06097 10.2332 7.34273 10.9303 7.34273C11.6274 7.34273 12.2589 7.06097 12.7156 6.60432C13.1722 6.14768 13.454 5.51615 13.454 4.81904C13.454 4.12193 13.1722 3.49041 12.7156 3.03376ZM10.9303 1.75613C10.085 1.75613 9.31989 2.09862 8.76609 2.65242C8.21229 3.20622 7.86981 3.97134 7.86981 4.81661C7.86981 5.66189 8.21229 6.42701 8.76609 6.98081C9.31989 7.53461 10.085 7.8771 10.9303 7.8771C11.7756 7.8771 12.5407 7.53461 13.0945 6.98081C13.6483 6.42701 13.9908 5.66189 13.9908 4.81661C13.9908 3.97134 13.6483 3.20622 13.0945 2.65242C12.5407 2.09862 11.7756 1.75613 10.9303 1.75613ZM12.1351 3.72116L10.5101 5.34613L9.86641 4.70245C9.76196 4.59801 9.59194 4.59801 9.48506 4.70245C9.37819 4.8069 9.38062 4.97693 9.48506 5.0838L10.3182 5.91693C10.4226 6.02138 10.5927 6.02138 10.6995 5.91693L12.514 4.1025C12.6184 3.99806 12.6184 3.82803 12.514 3.72116C12.4095 3.61428 12.2395 3.61671 12.1326 3.72116H12.1351Z" fill="#8B67F1"/>
</svg>
