<svg width="24" height="24" viewBox="0 0 24 24" fill="none" xmlns="http://www.w3.org/2000/svg">
<path d="M22.3085 6.08048H20.1023L21.2137 4.96906L22.2325 3.9503C22.5939 3.5889 22.7797 3.09736 22.7558 2.56552C22.7327 2.04908 22.513 1.5578 22.137 1.18176L21.5764 0.621178C21.2004 0.2454 20.7091 0.0256831 20.1926 0.00232528C19.6593 -0.0233426 19.1693 0.16429 18.8081 0.525693L17.7894 1.5442C17.7894 1.5442 17.7894 1.54445 17.7891 1.54445L13.2536 6.08022H4.42307V4.00472C4.42307 3.75677 4.22183 3.55553 3.97388 3.55553C2.33396 3.55553 1 4.88975 1 6.52941V17.35C1 18.9899 2.33422 20.3238 3.97388 20.3238H5.67874V23.5508C5.67874 23.7988 5.87998 24 6.12793 24H22.3087C22.5567 24 22.7579 23.7988 22.7579 23.5508V18.6126V6.52967C22.7576 6.28146 22.5567 6.08048 22.3085 6.08048ZM12.3953 12.517L11.6357 11.7574L19.5014 3.89178L20.2609 4.65129L12.3953 12.517ZM9.81923 11.2112L11.5469 12.9389L9.07281 13.6851L9.81923 11.2112ZM18.1069 2.4975L18.8664 3.25701L11.0007 11.1224L10.2412 10.3629L18.1069 2.4975ZM19.4434 1.16097C19.6241 0.980272 19.8741 0.886584 20.1524 0.899931C20.4439 0.913022 20.7242 1.03956 20.9411 1.25646L21.5015 1.81704C21.7183 2.03394 21.8451 2.31423 21.8582 2.60582C21.8706 2.88252 21.7779 3.13432 21.5972 3.31502L20.8962 4.01627L18.7422 1.86222L19.4434 1.16097ZM1.89838 6.52967C1.89838 5.5394 2.59552 4.70879 3.52469 4.50293V14.41C2.89686 14.5055 2.33293 14.7981 1.89838 15.2221V6.52967ZM3.97388 19.4257C2.82935 19.4257 1.89838 18.4948 1.89838 17.3502C1.89838 16.2057 2.82935 15.2747 3.97388 15.2747C4.22183 15.2747 4.42307 15.0735 4.42307 14.8255V6.97886H12.355L9.28842 10.0454C9.23605 10.0975 9.2014 10.1599 9.18035 10.2258C9.17933 10.2287 9.17702 10.2305 9.17599 10.2333L7.97088 14.2277C7.92289 14.3861 7.96626 14.5581 8.08331 14.6751C8.16878 14.7606 8.28352 14.8068 8.40082 14.8068C8.4442 14.8068 8.48784 14.8006 8.53044 14.7875L12.5249 13.5827C12.528 13.5817 12.5303 13.5791 12.5331 13.5781C12.5998 13.5563 12.6622 13.5211 12.7128 13.4703L19.2039 6.97911H21.8593V18.1639H6.12793C5.87998 18.1639 5.67874 18.3651 5.67874 18.6131V19.4262H3.97388V19.4257ZM21.8593 23.1016H19.6318V21.7646C19.6318 21.5166 19.4306 21.3154 19.1826 21.3154C18.9347 21.3154 18.7334 21.5166 18.7334 21.7646V23.1016H16.3219V21.7646C16.3219 21.5166 16.1207 21.3154 15.8727 21.3154C15.6248 21.3154 15.4236 21.5166 15.4236 21.7646V23.1016H13.0123V21.7646C13.0123 21.5166 12.8111 21.3154 12.5631 21.3154C12.3152 21.3154 12.1139 21.5166 12.1139 21.7646V23.1016H9.70244V21.7646C9.70244 21.5166 9.5012 21.3154 9.25325 21.3154C9.0053 21.3154 8.80406 21.5166 8.80406 21.7646V23.1016H6.5766V19.0618H21.859L21.8593 23.1016Z" fill="#7E4D03"/>
</svg>
