<svg width="20" height="20" viewBox="0 0 20 20" fill="none" xmlns="http://www.w3.org/2000/svg">
<path d="M13.1264 8.25182C13.1264 9.96878 11.7216 12.7471 10.0046 12.7471C8.28768 12.7471 6.88289 9.96878 6.88289 8.25182C6.88289 6.53485 8.28768 5.13006 10.0046 5.13006C11.7216 5.13006 13.1264 6.53485 13.1264 8.25182Z" fill="#8DAA17"/>
<path d="M10.0047 2.78874C6.00881 2.78874 2.7934 6.00415 2.7934 10C2.7934 13.9646 6.00881 17.2113 10.0047 17.2113C14.0005 17.2113 17.2159 13.9646 17.2159 10C17.2159 6.00415 14.0005 2.78874 10.0047 2.78874ZM12.4084 11.9667C11.7528 12.8096 10.9412 13.4027 10.0047 13.4027C9.06813 13.4027 8.22526 12.8096 7.56969 11.9667C6.44585 12.3101 5.19715 12.9969 4.76011 14.0271C3.88602 12.9032 3.38653 11.5297 3.38653 10C3.38653 6.34755 6.3522 3.41309 9.97344 3.41309C13.6259 3.41309 16.5603 6.37876 16.5603 10C16.5603 11.4984 16.0609 12.9032 15.1868 14.0271C14.8122 12.9969 13.5635 12.3101 12.4084 11.9667Z" fill="#8DAA17"/>
<path d="M2.20026 4.81789L2.32513 5.53589C2.35635 5.7232 2.51244 5.81685 2.69974 5.78563C2.85583 5.75441 2.9807 5.59833 2.94948 5.41102L2.69974 3.97501C2.66852 3.81892 2.48122 3.66284 2.29391 3.72527L0.857905 3.97501C0.701817 4.00623 0.576947 4.16232 0.608164 4.34962C0.639382 4.53693 0.795469 4.63058 0.982775 4.59936L1.66956 4.47449C-0.702973 8.03329 -0.546885 12.7159 2.13782 16.1499C2.23148 16.2747 2.45 16.3059 2.57487 16.2123C2.69974 16.1186 2.73096 15.9001 2.63731 15.7752C0.108683 12.5598 -0.0161868 8.15816 2.20026 4.81789Z" fill="#8DAA17"/>
<path d="M15.7799 17.3673C12.5957 19.8647 8.19403 20.0208 4.85375 17.8044L5.57176 17.6795C5.72784 17.6483 5.85271 17.4922 5.8215 17.3361C5.79028 17.18 5.63419 17.0552 5.4781 17.0864L4.01088 17.3049C3.85479 17.3361 3.72992 17.4922 3.76114 17.6795L3.97966 19.1155C4.01088 19.3028 4.16697 19.3965 4.32305 19.3653C4.47914 19.334 4.60401 19.178 4.57279 19.0219L4.44792 18.3039C8.03794 20.7076 12.7206 20.5515 16.1233 17.8668C16.2482 17.7732 16.2794 17.5546 16.1857 17.4298C16.0921 17.3049 15.9048 17.2737 15.7799 17.3673Z" fill="#8DAA17"/>
<path d="M4.2294 2.63266C7.44481 0.104035 11.8153 -0.0208345 15.1555 2.19561L14.4375 2.32048C14.2815 2.3517 14.1566 2.50779 14.1878 2.66388C14.219 2.81996 14.3751 2.94483 14.5312 2.91362L15.9984 2.69509C16.1545 2.66388 16.3106 2.50779 16.2482 2.32048L16.0296 0.884475C15.9984 0.728387 15.8423 0.603517 15.6862 0.634734C15.5302 0.665952 15.4053 0.82204 15.4365 0.978127L15.5614 1.69613C11.9714 -0.707621 7.2575 -0.551533 3.85479 2.13318C3.72992 2.22683 3.6987 2.44535 3.79235 2.57022C3.91723 2.69509 4.10453 2.72631 4.2294 2.63266Z" fill="#8DAA17"/>
<path d="M19.0265 15.4319L18.3085 15.5567C20.6811 11.9979 20.5562 7.28407 17.8715 3.88136C17.7778 3.75649 17.5593 3.72527 17.4344 3.81892C17.3096 3.91258 17.2783 4.1311 17.372 4.25597C19.9006 7.47138 20.0255 11.8418 17.809 15.1821L17.6842 14.4641C17.6529 14.308 17.4969 14.1832 17.3408 14.2144C17.1847 14.2456 17.0598 14.4017 17.091 14.5578L17.3096 16.025C17.3408 16.1499 17.4656 16.3059 17.6529 16.2747L19.1202 16.0562C19.2763 16.025 19.4011 15.8689 19.3699 15.7128C19.3699 15.4943 19.2138 15.4006 19.0265 15.4319Z" fill="#8DAA17"/>
</svg>
