<svg width="24" height="20" viewBox="0 0 24 20" fill="none" xmlns="http://www.w3.org/2000/svg">
<path d="M21.8607 14.3131C21.1713 14.3131 20.616 15.5578 20.616 17.0895C20.616 18.6211 21.175 19.8658 21.8607 19.8658C22.5502 19.8658 23.1054 18.6211 23.1054 17.0895C23.1054 15.5578 22.5464 14.3131 21.8607 14.3131Z" fill="#FF2171"/>
<path d="M10.9304 14.1789C9.32417 14.1789 8.01983 15.4833 8.01983 17.0895C8.01983 18.6957 9.32417 20 10.9304 20C12.5366 20 13.8409 18.6957 13.8409 17.0895C13.8409 15.4833 12.5366 14.1789 10.9304 14.1789ZM12.2459 16.5975L10.7366 18.1068C10.662 18.1814 10.5689 18.2149 10.472 18.2149C10.3751 18.2149 10.2819 18.1777 10.2074 18.1068L9.61485 17.5143C9.46951 17.369 9.46951 17.1342 9.61485 16.9888C9.76019 16.8435 9.99497 16.8435 10.1403 16.9888L10.472 17.3205L11.7204 16.0721C11.8658 15.9267 12.1005 15.9267 12.2459 16.0721C12.3912 16.2174 12.3912 16.4522 12.2459 16.5975Z" fill="#FF2171"/>
<path d="M10.9304 13.4336C11.0161 13.4336 11.0981 13.441 11.1801 13.4448V0.371549C8.30306 -1.13776 5.42978 2.57402 2.55278 0.59515V13.8025C4.46457 14.1417 6.4099 14.3802 8.3515 14.5031C9.01485 13.8435 9.92416 13.4336 10.9304 13.4336ZM10.2223 11.4771C9.831 11.4025 9.40988 11.4063 8.92914 11.492C8.90678 11.4957 8.88442 11.4994 8.86206 11.4994C8.68318 11.4994 8.52666 11.3727 8.49684 11.1901C8.45958 10.9889 8.59746 10.7951 8.7987 10.7578C9.36889 10.6572 9.88317 10.6497 10.3639 10.7429C10.5652 10.7802 10.6993 10.9777 10.662 11.1789C10.6173 11.3839 10.4235 11.5181 10.2223 11.4771ZM10.2223 8.8833C9.831 8.80876 9.40615 8.81249 8.92541 8.89821C8.90305 8.90193 8.88069 8.90566 8.86206 8.90566C8.68318 8.90566 8.52666 8.77895 8.49684 8.59634C8.45958 8.3951 8.59746 8.20131 8.7987 8.16405C9.37261 8.06343 9.88317 8.0597 10.3639 8.15287C10.5652 8.19014 10.6993 8.38765 10.6583 8.58889C10.6173 8.79013 10.4273 8.92057 10.2223 8.8833ZM3.88321 3.1442C4.86332 3.33426 5.8658 2.98768 6.92791 2.62247C8.03846 2.24234 9.18255 1.84732 10.3639 2.07464C10.5652 2.11191 10.6993 2.30943 10.6583 2.51067C10.6211 2.71191 10.4273 2.84607 10.2223 2.80507C9.23845 2.61501 8.23225 2.9616 7.17014 3.32681C6.28692 3.62867 5.38133 3.94171 4.45712 3.94171C4.22233 3.94171 3.98383 3.92308 3.74532 3.87463C3.54408 3.83737 3.40992 3.63985 3.45091 3.43861C3.48445 3.23737 3.68197 3.10694 3.88321 3.1442ZM3.44718 6.47959C3.48445 6.27835 3.68197 6.14418 3.88321 6.18518C4.86332 6.37151 5.8658 6.02866 6.92791 5.66344C8.03846 5.28332 9.18255 4.88829 10.3639 5.11562C10.5652 5.15289 10.6993 5.3504 10.6583 5.55164C10.6211 5.75288 10.4273 5.88704 10.2223 5.84605C9.23845 5.65599 8.23225 6.00257 7.17014 6.36779C6.28692 6.66965 5.38133 6.98269 4.45712 6.98269C4.22233 6.98269 3.98383 6.96406 3.74532 6.91561C3.54035 6.87461 3.40992 6.68083 3.44718 6.47959ZM7.59871 11.4659C6.33536 11.8796 5.07575 12.4237 3.8124 12.1851V9.63236C5.07575 9.87087 6.33536 9.32677 7.59871 8.91311V11.4659Z" fill="#FF2171"/>
<path d="M11.9254 0.371549V13.5789C12.5589 13.7578 13.1217 14.1044 13.5689 14.5665C15.9092 14.4733 18.2533 14.2087 20.5564 13.7988V0.591423C17.6757 2.57029 14.7987 -1.13776 11.9254 0.371549ZM12.7415 8.14914C13.9229 7.92181 15.0707 8.31684 16.1775 8.69696C17.2359 9.06218 18.2384 9.40503 19.2222 9.2187C19.4235 9.18143 19.621 9.31187 19.6583 9.51311C19.6955 9.71435 19.5651 9.91186 19.3639 9.94913C19.1253 9.99385 18.8868 10.0162 18.6521 10.0162C17.7241 10.0162 16.8185 9.7069 15.939 9.40131C14.8769 9.03609 13.8707 8.69324 12.8869 8.87957C12.6819 8.91684 12.4881 8.7864 12.4509 8.58516C12.4099 8.38392 12.5403 8.19014 12.7415 8.14914ZM12.4471 5.55164C12.4099 5.3504 12.5403 5.15289 12.7415 5.11562C13.9229 4.88829 15.0707 5.28332 16.1775 5.66344C17.2359 6.02866 18.2384 6.37151 19.2222 6.18518C19.4235 6.14791 19.621 6.27835 19.6583 6.47959C19.6955 6.68083 19.5651 6.87834 19.3639 6.91561C19.1253 6.96033 18.8868 6.98269 18.6521 6.98269C17.7241 6.98269 16.8185 6.67337 15.939 6.36779C14.8769 6.00257 13.8707 5.65599 12.8869 5.84605C12.6782 5.88332 12.4881 5.75288 12.4471 5.55164ZM19.3639 12.9901C19.1253 13.0348 18.8906 13.0572 18.6521 13.0572C17.7241 13.0572 16.8148 12.7441 15.9316 12.4423C14.8695 12.0771 13.8633 11.7305 12.8832 11.9205C12.6819 11.9615 12.4844 11.8274 12.4471 11.6224C12.4099 11.4212 12.5403 11.2237 12.7453 11.1864C13.9229 10.9628 15.067 11.3578 16.1738 11.7379C17.2359 12.1032 18.2384 12.4497 19.2222 12.2597C19.4272 12.2224 19.621 12.3528 19.6583 12.5578C19.6955 12.7553 19.5651 12.9528 19.3639 12.9901ZM19.6583 3.44234C19.6955 3.64358 19.5651 3.84109 19.3639 3.87836C19.1253 3.92308 18.8868 3.94544 18.6521 3.94544C17.7241 3.94544 16.8185 3.63613 15.939 3.33054C14.8769 2.96532 13.8707 2.62247 12.8869 2.8088C12.6819 2.84607 12.4881 2.71563 12.4509 2.51439C12.4136 2.31315 12.544 2.11564 12.7453 2.07837C13.9266 1.85104 15.0744 2.24607 16.1813 2.62619C17.2396 2.99141 18.2421 3.33426 19.226 3.14793C19.4235 3.10694 19.6173 3.23737 19.6583 3.44234Z" fill="#FF2171"/>
<path d="M7.79995 15.2075C5.6832 15.0547 3.57389 14.7789 1.47577 14.3615C1.40123 14.3317 1.32297 14.3131 1.24471 14.3131C0.559003 14.3131 0 15.5578 0 17.0895C0 18.6249 0.559003 19.8658 1.24471 19.8658C1.31179 19.8658 1.37515 19.8509 1.4385 19.8286C3.55153 19.4075 5.67574 19.1317 7.80368 18.9752C7.46828 18.4236 7.27076 17.7789 7.27076 17.0857C7.27449 16.4 7.46828 15.759 7.79995 15.2075Z" fill="#FF2171"/>
<path d="M20.4222 14.5777C18.3241 14.9429 16.2148 15.1814 14.1055 15.2857C14.4111 15.8187 14.5862 16.4336 14.5862 17.0895C14.5862 17.7491 14.4074 18.364 14.1018 18.8969C16.2148 19.0012 18.3241 19.2398 20.426 19.605C20.0757 18.9789 19.867 18.1031 19.867 17.0857C19.867 16.0795 20.0757 15.2038 20.4222 14.5777Z" fill="#FF2171"/>
</svg>
