<svg width="24" height="24" viewBox="0 0 24 24" fill="none" xmlns="http://www.w3.org/2000/svg">
<path d="M22.5 2C23.3284 2 24 2.67155 24 3.5C24 4.32845 23.3284 5 22.5 5H1.5C0.67158 5 0 4.32845 0 3.5C0 2.67155 0.67158 2 1.5 2H22.5ZM22.5 10.1C23.3284 10.1 24 10.7715 24 11.6C24 12.4285 23.3284 13.1 22.5 13.1H1.5C0.67158 13.1 0 12.4285 0 11.6C0 10.7715 0.67158 10.1 1.5 10.1H22.5ZM22.5 18.2C23.3284 18.2 24 18.8716 24 19.7C24 20.5285 23.3284 21.2 22.5 21.2H1.5C0.67158 21.2 0 20.5285 0 19.7C0 18.8716 0.67158 18.2 1.5 18.2H22.5Z" fill="#67748E"/>
</svg>
