<svg width="20" height="20" viewBox="0 0 20 20" fill="none" xmlns="http://www.w3.org/2000/svg">
<path fill-rule="evenodd" clip-rule="evenodd" d="M10.0219 0C15.5361 0 20 4.46389 20 10.0219C20 15.5361 15.5361 20 10.0219 20C4.46389 20 0 15.5361 0 10.0219C0 4.46389 4.46389 0 10.0219 0ZM12.8665 12.8665L11.116 10.547C11.1597 10.372 11.2035 10.1969 11.2035 10.0219C11.2035 9.49672 10.8972 9.05908 10.4595 8.88403L10.0219 3.71991L9.54048 8.88403C9.10284 9.05908 8.7965 9.49672 8.7965 10.0219C8.7965 10.6783 9.32166 11.2035 10.0219 11.2035C10.1969 11.2035 10.372 11.1597 10.547 11.116L12.8665 12.8665ZM10.0219 9.58424C9.7593 9.58424 9.58424 9.7593 9.58424 10.0219C9.58424 10.2407 9.7593 10.4595 10.0219 10.4595C10.2407 10.4595 10.4595 10.2407 10.4595 10.0219C10.4595 9.7593 10.2407 9.58424 10.0219 9.58424ZM15.5361 3.93873C15.7112 3.80744 15.93 3.80744 16.0613 3.93873C16.2363 4.07002 16.2363 4.3326 16.0613 4.46389L15.2735 5.25164C15.1422 5.38293 14.9234 5.38293 14.7484 5.25164C14.6171 5.12035 14.6171 4.85777 14.7484 4.72648L15.5361 3.93873ZM18.2057 9.62801C18.4245 9.62801 18.5996 9.80306 18.5996 10.0219C18.5996 10.1969 18.4245 10.372 18.2057 10.372H17.1116C16.8928 10.372 16.7177 10.1969 16.7177 10.0219C16.7177 9.80306 16.8928 9.62801 17.1116 9.62801H18.2057ZM16.0613 15.5361C16.2363 15.7112 16.2363 15.93 16.0613 16.0613C15.93 16.2363 15.7112 16.2363 15.5361 16.0613L14.7484 15.2735C14.6171 15.1422 14.6171 14.9234 14.7484 14.7484C14.9234 14.6171 15.1422 14.6171 15.2735 14.7484L16.0613 15.5361ZM10.372 18.2057C10.372 18.4245 10.1969 18.5996 10.0219 18.5996C9.80306 18.5996 9.62801 18.4245 9.62801 18.2057V17.1116C9.62801 16.8928 9.80306 16.7177 10.0219 16.7177C10.1969 16.7177 10.372 16.8928 10.372 17.1116V18.2057ZM4.46389 16.0613C4.3326 16.2363 4.07002 16.2363 3.93873 16.0613C3.80744 15.93 3.80744 15.7112 3.93873 15.5361L4.72648 14.7484C4.85777 14.6171 5.12035 14.6171 5.25164 14.7484C5.38293 14.9234 5.38293 15.1422 5.25164 15.2735L4.46389 16.0613ZM1.79431 10.372C1.57549 10.372 1.4442 10.1969 1.4442 10.0219C1.4442 9.80306 1.57549 9.62801 1.79431 9.62801H2.8884C3.10722 9.62801 3.28228 9.80306 3.28228 10.0219C3.28228 10.1969 3.10722 10.372 2.8884 10.372H1.79431ZM3.93873 4.46389C3.80744 4.3326 3.80744 4.07002 3.93873 3.93873C4.07002 3.80744 4.3326 3.80744 4.46389 3.93873L5.25164 4.72648C5.38293 4.85777 5.38293 5.12035 5.25164 5.25164C5.12035 5.38293 4.85777 5.38293 4.72648 5.25164L3.93873 4.46389ZM9.62801 1.79431C9.62801 1.57549 9.80306 1.4442 10.0219 1.4442C10.1969 1.4442 10.372 1.57549 10.372 1.79431V2.8884C10.372 3.10722 10.1969 3.28228 10.0219 3.28228C9.80306 3.28228 9.62801 3.10722 9.62801 2.8884V1.79431Z" fill="#484033"/>
</svg>
