<svg width="20" height="20" viewBox="0 0 20 20" fill="none" xmlns="http://www.w3.org/2000/svg">
<path d="M15.3239 6.0691L10 8.73106L8.95175 8.20694L13.1447 5.75186L13.8619 5.3381L15.3239 6.0691Z" fill="#E38800"/>
<path d="M13.124 4.97258L12.4137 5.38638L8.21384 7.84146L7.20011 7.33114L12.331 4.57262L13.124 4.97258Z" fill="#E38800"/>
<path d="M11.5724 4.19329L6.44153 6.95181L4.67608 6.0691L9.8483 3.48299C9.94482 3.43472 10.0552 3.43472 10.1517 3.48299L11.5724 4.19329Z" fill="#E38800"/>
<path d="M3.17476 2.82994H2.19958C2.00899 2.82994 1.85476 2.98417 1.85476 3.17476C1.85476 3.36535 2.00899 3.51957 2.19958 3.51957H2.38903C-0.336021 6.71736 -0.790274 11.3256 1.33855 14.9991C1.40253 15.1096 1.51837 15.1712 1.63723 15.1712C1.69583 15.1712 1.75543 15.1564 1.80964 15.1247C1.97464 15.0291 2.03088 14.8183 1.93524 14.6537C-0.0237851 11.2726 0.369351 7.04197 2.82994 4.06946V4.1496C2.82994 4.34019 2.98417 4.49441 3.17476 4.49441C3.36535 4.49441 3.51957 4.34019 3.51957 4.1496V3.17476C3.51957 2.98417 3.36535 2.82994 3.17476 2.82994Z" fill="#E38800"/>
<path d="M2.82994 16.8252V17.8004C2.82994 17.991 2.98417 18.1452 3.17476 18.1452C3.36535 18.1452 3.51957 17.991 3.51957 17.8004V17.611C6.71736 20.336 11.3256 20.7903 14.9991 18.6614C15.1096 18.5975 15.1712 18.4816 15.1712 18.3628C15.1712 18.3042 15.1564 18.2446 15.1247 18.1904C15.0291 18.0254 14.8183 17.9691 14.6537 18.0648C11.2726 20.0238 7.04197 19.6306 4.06946 17.1701H4.1496C4.34019 17.1701 4.49441 17.0158 4.49441 16.8252C4.49441 16.6347 4.34019 16.4804 4.1496 16.4804H3.17476C2.98417 16.4804 2.82994 16.6347 2.82994 16.8252Z" fill="#E38800"/>
<path d="M16.8252 17.1701H17.8004C17.991 17.1701 18.1452 17.0158 18.1452 16.8252C18.1452 16.6347 17.991 16.4804 17.8004 16.4804H17.611C20.336 13.2826 20.7903 8.67445 18.6614 5.00086C18.5975 4.89041 18.4816 4.82879 18.3628 4.82879C18.3042 4.82879 18.2446 4.84361 18.1904 4.87526C18.0254 4.97089 17.9691 5.18169 18.0648 5.34635C20.0238 8.72736 19.6306 12.958 17.1701 15.9305V15.8504C17.1701 15.6598 17.0158 15.5056 16.8252 15.5056C16.6347 15.5056 16.4804 15.6598 16.4804 15.8504V16.8252C16.4804 17.0158 16.6347 17.1701 16.8252 17.1701Z" fill="#E38800"/>
<path d="M17.1701 3.17476V2.19958C17.1701 2.00899 17.0158 1.85476 16.8252 1.85476C16.6347 1.85476 16.4804 2.00899 16.4804 2.19958V2.38903C13.2826 -0.336021 8.67445 -0.790274 5.00086 1.33855C4.89041 1.40253 4.82879 1.51837 4.82879 1.63723C4.82879 1.69583 4.84361 1.75543 4.87526 1.80964C4.97089 1.97464 5.18169 2.03088 5.34635 1.93524C8.72736 -0.0237851 12.958 0.369351 15.9305 2.82994H15.8504C15.6598 2.82994 15.5056 2.98417 15.5056 3.17476C15.5056 3.36535 15.6598 3.51957 15.8504 3.51957H16.8252C17.0158 3.51957 17.1701 3.36535 17.1701 3.17476Z" fill="#E38800"/>
<path d="M10.3448 9.32413V16.4204L15.4757 13.855C15.5929 13.793 15.6619 13.6757 15.6619 13.5447V6.66908L10.3448 9.32413ZM13.9792 12.7447L13.0895 13.1861C13.0412 13.2137 12.9861 13.2275 12.9378 13.2275C12.8068 13.2275 12.6896 13.1585 12.6275 13.0343C12.5447 12.8619 12.6137 12.6551 12.7792 12.5723L13.6688 12.1309C13.8412 12.0413 14.0481 12.1103 14.1309 12.2827C14.2136 12.4551 14.1447 12.662 13.9792 12.7447Z" fill="#E38800"/>
<path d="M9.65519 9.32413V16.4204L4.52434 13.855C4.40712 13.793 4.33813 13.6757 4.33813 13.5447V6.66908L5.02776 7.01389L6.11048 7.55182V10.8896C6.11048 11.0137 6.17947 11.1379 6.29669 11.193C6.41392 11.2551 6.55185 11.2413 6.65531 11.1655L7.20011 10.7655L7.93111 11.9516C8.00006 12.0551 8.11042 12.1172 8.22765 12.1172C8.25522 12.1172 8.28973 12.1103 8.32421 12.1034C8.46904 12.062 8.57246 11.9241 8.57246 11.7724V8.78625L9.65519 9.32413Z" fill="#E38800"/>
<path d="M7.88283 8.44143V10.5586L7.5932 10.0828C7.53802 10.0069 7.45527 9.94482 7.36561 9.93101C7.26905 9.91034 7.17254 9.93101 7.09665 9.98619L6.80011 10.2069V7.89664L7.88283 8.44143Z" fill="#E38800"/>
</svg>
