<svg width="20" height="20" viewBox="0 0 20 20" fill="none" xmlns="http://www.w3.org/2000/svg">
<path fill-rule="evenodd" clip-rule="evenodd" d="M6.69965 1.90785H11.0094C11.4577 1.90785 11.8483 1.48275 11.8483 0.953925C11.8483 0.425445 11.4689 0 10.9865 0H6.69965C6.21723 0 5.83784 0.425445 5.83784 0.953925C5.83784 1.47115 6.22849 1.90785 6.69965 1.90785Z" fill="#1B9611"/>
<path fill-rule="evenodd" clip-rule="evenodd" d="M15.3116 0.449327H13.24C13.2642 0.559527 13.2761 0.669726 13.2761 0.792549C13.2761 1.6506 12.663 2.49638 11.9155 2.49638H5.55364C4.78122 2.49638 4.15619 1.6506 4.15619 0.792549C4.15619 0.682008 4.16847 0.559527 4.1927 0.449327H2.09686C0.416915 0.449327 0 1.4053 0 2.79047V16.4839C0 17.9676 0.588526 18.8011 2.219 18.8011H13.1905C12.6388 18.1392 12.3079 17.2928 12.3079 16.3614C12.3079 14.2649 13.9994 12.561 16.0959 12.561C16.6353 12.561 17.1379 12.6716 17.6036 12.8674V2.77853C17.6036 1.40564 16.8561 0.449327 15.3116 0.449327ZM8.45875 14.6944H4.35237C4.02143 14.6944 3.81263 14.3389 3.81263 14.0073C3.81263 13.676 4.09478 13.3457 4.42572 13.3457H8.50787C8.83881 13.3457 9.12062 13.6521 9.14553 14.0073C9.14519 14.3389 8.78968 14.6944 8.45875 14.6944ZM13.3133 10.9183H4.31552C3.98424 10.9183 3.65364 10.5136 3.65364 10.1708C3.65364 9.83914 3.93579 9.55767 4.26639 9.55767H13.24C13.5709 9.55767 13.8527 9.81492 13.8773 10.1708C13.8776 10.501 13.6446 10.9183 13.3133 10.9183ZM13.3505 7.01967H4.35237C4.02143 7.01967 3.81263 6.66417 3.81263 6.33323C3.81263 6.00229 4.09478 5.67135 4.42572 5.67135H13.3993C13.7302 5.67135 14.012 5.97772 14.0363 6.33323C14.0363 6.65222 13.6811 7.01967 13.3505 7.01967Z" fill="#1B9611"/>
<path fill-rule="evenodd" clip-rule="evenodd" d="M15.9687 15.2761C15.9042 15.3648 15.8718 15.4624 15.8718 15.5692C15.8718 15.6667 15.9015 15.7571 15.9602 15.8407C16.0192 15.925 16.1089 15.9926 16.2283 16.0441V15.0881C16.1192 15.1249 16.0328 15.1877 15.9687 15.2761Z" fill="#1B9611"/>
<path fill-rule="evenodd" clip-rule="evenodd" d="M16.6285 16.9509V18.028C16.7667 18.0021 16.8793 17.9383 16.9656 17.8359C17.0523 17.7339 17.0956 17.6138 17.0956 17.4757C17.0956 17.3521 17.0594 17.2457 16.9864 17.1563C16.9138 17.0669 16.7944 16.9983 16.6285 16.9509Z" fill="#1B9611"/>
<path fill-rule="evenodd" clip-rule="evenodd" d="M16.4508 13.1373C14.5675 13.1373 13.0332 14.6712 13.0332 16.5685C13.0332 18.4657 14.5535 20 16.4508 20C18.3477 20 19.8683 18.4657 19.8683 16.5685C19.854 14.6712 18.3334 13.1373 16.4508 13.1373ZM17.4702 18.2187C17.2686 18.4473 16.9881 18.5872 16.6285 18.6387V19.1556H16.228V18.6527C15.909 18.6138 15.6507 18.4947 15.4515 18.2962C15.2526 18.0969 15.1256 17.8165 15.0704 17.4531L15.7916 17.3757C15.8209 17.5231 15.8762 17.6503 15.9571 17.7568C16.0383 17.8636 16.1283 17.941 16.228 17.9888V16.8312C15.8667 16.7278 15.6019 16.5719 15.4334 16.3631C15.2652 16.1539 15.1809 15.9004 15.1809 15.6019C15.1809 15.2996 15.2761 15.0458 15.4668 14.8404C15.6575 14.635 15.9114 14.5173 16.228 14.4856V14.212H16.6285V14.4856C16.9216 14.5207 17.1546 14.6207 17.3276 14.7855C17.5009 14.9499 17.6114 15.1707 17.6595 15.4474L16.9605 15.5385C16.9178 15.3208 16.8076 15.1741 16.6285 15.0963V16.1768C17.071 16.2965 17.3719 16.4518 17.5319 16.6422C17.6926 16.8329 17.7725 17.0775 17.7725 17.3757C17.7728 17.7094 17.6718 17.9905 17.4702 18.2187Z" fill="#1B9611"/>
</svg>
