<svg width="24" height="24" viewBox="0 0 24 24" fill="none" xmlns="http://www.w3.org/2000/svg">
<g clip-path="url(#clip0_164_12)">
<path d="M17.7698 13.5473L23.6289 9.41374H23.6278C23.9444 9.19088 24.0768 8.79552 23.9555 8.43445C23.8352 8.07444 23.4887 7.83016 23.0981 7.83016H15.9304C15.5398 7.83016 15.1933 7.58587 15.073 7.2248L12.8574 0.604286C12.7371 0.244282 12.3906 0 12 0C11.6094 0 11.2629 0.244287 11.1426 0.604286L8.92699 7.2248C8.80672 7.58588 8.46026 7.83016 8.06963 7.83016H0.901897C0.511295 7.83016 0.164814 8.07445 0.0445373 8.43445C-0.0768382 8.79552 0.0555716 9.19088 0.372262 9.41374L6.2313 13.5473H6.2302C6.53253 13.7594 6.66826 14.1301 6.57224 14.4794L4.26944 22.8998C4.17235 23.2577 4.31689 23.637 4.63135 23.847C4.94582 24.0559 5.36179 24.0505 5.67076 23.833L11.4702 19.7412C11.7858 19.5183 12.2139 19.5183 12.5295 19.7412L18.3289 23.833C18.6379 24.0505 19.0538 24.0559 19.3683 23.847C19.6828 23.637 19.8284 23.2577 19.7302 22.8998L17.4274 14.4794C17.3314 14.1301 17.4675 13.7594 17.7698 13.5473Z" fill="white"/>
</g>
<defs>
<clipPath id="clip0_164_12">
<rect width="24" height="24" fill="white"/>
</clipPath>
</defs>
</svg>
