<svg width="24" height="24" viewBox="0 0 24 24" fill="none" xmlns="http://www.w3.org/2000/svg">
<g clip-path="url(#clip0_164_12)">
<path d="M13.0712 13.0312C12.0634 12.8334 11.4756 11.7778 11.8346 10.8168C13.5821 6.14819 8.15117 2.07185 4.18187 5.06725C-0.0667877 8.27336 -1.29293 14.2162 1.50159 18.8803C4.15091 23.3024 9.4318 24.9937 13.9637 23.4279C19.0597 21.6674 18.7665 14.1532 13.0712 13.0312ZM13.733 22.7633C9.5031 24.2248 4.57573 22.6442 2.10449 18.5192C-0.503557 14.1664 0.641994 8.6203 4.60669 5.62875C8.01536 3.05718 12.6775 6.56248 11.1776 10.5703C10.6657 11.939 11.5047 13.439 12.9363 13.7202C17.9472 14.7083 18.1242 21.2463 13.733 22.7633ZM13.0196 15.8428C11.4971 15.4612 9.95581 16.3837 9.57445 17.9071C9.1929 19.4296 10.1154 20.9709 11.6388 21.3523C13.1575 21.7329 14.7036 20.8076 15.084 19.2879C15.4655 17.7654 14.5421 16.2241 13.0196 15.8428ZM14.4015 19.1166C14.1146 20.2593 12.9521 20.9559 11.8093 20.67C10.6637 20.3831 9.96896 19.2234 10.2568 18.0778C10.5436 16.9331 11.7024 16.2375 12.849 16.5253C13.9936 16.8122 14.6883 17.9709 14.4015 19.1166ZM7.58123 6.54961C6.05874 6.16807 4.51743 7.09054 4.13608 8.61397C3.75453 10.1365 4.67701 11.6778 6.20043 12.0591C7.71916 12.4397 9.26519 11.5144 9.64559 9.99476C10.0271 8.47227 9.10372 6.93097 7.58123 6.54961ZM8.96308 9.82437C8.67622 10.9672 7.51372 11.6637 6.37088 11.3778C5.22528 11.0909 4.53059 9.93126 4.81839 8.78559C5.10807 7.62967 6.27524 6.94813 7.41059 7.2331C8.55526 7.51903 9.24995 8.67872 8.96308 9.82437ZM6.42824 13.354C4.90952 12.9734 3.36348 13.8987 2.98309 15.4184C2.60248 16.9371 3.52776 18.4831 5.04744 18.8635C6.56523 19.2441 8.1122 18.3188 8.49259 16.7991C8.8732 15.2804 7.94699 13.7344 6.42824 13.354ZM7.81009 16.6278C7.52322 17.7706 6.36073 18.4671 5.21789 18.1803C4.0751 17.8934 3.37853 16.7309 3.6654 15.5881C3.95227 14.4453 5.11476 13.7487 6.2576 14.0356C7.40039 14.3225 8.09696 15.4849 7.81009 16.6278ZM23.3818 17.3337L18.656 6.63035C20.0425 4.77412 18.7648 3.15136 17.321 3.0904C16.2373 3.04446 15.342 2.27196 14.5059 0.659473C14.0099 -0.297705 12.6084 -0.188963 12.2728 0.830096C11.7572 2.39288 11.9784 4.72812 12.509 5.9281C12.9656 6.96309 13.8562 7.67369 14.8724 7.94369L19.7305 18.9461C21.1292 22.1167 24.7918 20.5268 23.3818 17.3337ZM13.151 5.64516C12.6832 4.58673 12.4816 2.44001 12.9391 1.05139C13.0816 0.620138 13.6722 0.58265 13.8803 0.983888C14.6228 2.41638 15.6634 3.72513 17.29 3.79353C18.2509 3.83384 19.1884 4.94664 17.9696 6.36221C17.7887 6.59565 17.3959 6.91908 16.9497 7.11594C15.4975 7.75813 13.7932 7.09826 13.151 5.64516ZM20.3725 18.6621L15.6925 8.06289C16.6131 8.0882 17.4813 7.7554 18.1347 7.19103L22.7388 17.6177C23.7691 19.9511 21.399 20.9861 20.3725 18.6621Z" fill="black"/>
</g>
<defs>
<clipPath id="clip0_164_12">
<rect width="24" height="24" fill="white"/>
</clipPath>
</defs>
</svg>
