<svg width="23" height="20" viewBox="0 0 23 20" fill="none" xmlns="http://www.w3.org/2000/svg">
<path fill-rule="evenodd" clip-rule="evenodd" d="M17.0628 3.33363H5.41356H4.61971V16.6313C4.61971 16.8268 4.69253 17.0076 4.81615 17.1478C4.93752 17.2854 5.10789 17.3798 5.30298 17.4049C5.79835 17.4683 6.24427 17.6985 6.58276 18.037C6.92125 18.3754 7.15185 18.8218 7.21523 19.3167C7.23995 19.5118 7.3348 19.6822 7.4737 19.8054C7.61261 19.9272 7.79331 20 7.98885 20H14.4893C14.6858 20 14.8674 19.9272 15.0054 19.8036C15.1425 19.6826 15.2382 19.5118 15.263 19.3167C15.3268 18.8214 15.5565 18.3754 15.895 18.037C16.2335 17.6985 16.6794 17.4683 17.1748 17.4049C17.3703 17.3802 17.5411 17.2849 17.663 17.146C17.7852 17.0071 17.8576 16.8259 17.8576 16.6313V3.33363H17.0628ZM12.0736 11.6619V8.42848C12.0736 8.21766 12.2449 8.04639 12.4557 8.04639H12.4854C12.6958 8.04639 12.8675 8.21766 12.8675 8.42848V11.6619C12.8675 11.8722 12.6962 12.044 12.4854 12.044H12.4557C12.2449 12.044 12.0736 11.8722 12.0736 11.6619ZM9.60892 6.95541C9.60892 6.74458 9.78019 6.57332 9.99101 6.57332H10.0207C10.2315 6.57332 10.4028 6.74458 10.4028 6.95541V13.1345C10.4028 13.3449 10.2315 13.5166 10.0207 13.5166H9.99101C9.78064 13.5166 9.60892 13.3449 9.60892 13.1345V6.95541ZM8.05808 5.81633V14.274C8.05808 15.0058 8.65144 15.5992 9.38371 15.5992H13.0922C13.8241 15.5992 14.4179 15.0058 14.4179 14.274V5.81633C14.4179 5.08496 13.8236 4.4907 13.0922 4.4907H9.38371C8.65234 4.4907 8.05808 5.08451 8.05808 5.81633ZM18.531 3.33363V5.07867V5.87252H22.079C22.2984 5.87252 22.476 5.69451 22.476 5.47514V0.396925C22.476 0.17756 22.2984 0 22.079 0H0.396925C0.17756 0 0 0.17801 0 0.396925V5.47559C0 5.69496 0.17756 5.87297 0.396925 5.87297H3.94543V5.07912V3.33363H2.72454C2.50517 3.33363 2.32761 3.15562 2.32761 2.93671C2.32761 2.71734 2.50562 2.53978 2.72454 2.53978H19.7514C19.9708 2.53978 20.1488 2.71734 20.1488 2.93671C20.1488 3.15562 19.9708 3.33363 19.7514 3.33363H18.531ZM7.26423 14.2736V5.81633C7.26423 4.65072 8.21811 3.69729 9.38371 3.69729H13.0922C14.2578 3.69729 15.2117 4.65072 15.2117 5.81633V14.274C15.2117 15.4396 14.2578 16.3935 13.0922 16.3935H9.38371C8.21811 16.3931 7.26423 15.4396 7.26423 14.2736Z" fill="#CD2C2C"/>
</svg>
